ISO-10303-21;
HEADER;
FILE_DESCRIPTION(('Open CASCADE Model'),'2;1');
FILE_NAME('Open CASCADE Shape Model','2026-10-04T12:19:13',('Author'),(
    'Open CASCADE'),'Open CASCADE STEP processor 7.9','Open CASCADE 7.9'
  ,'Unknown');
FILE_SCHEMA(('AUTOMOTIVE_DESIGN { 1 0 10303 214 1 1 1 1 }'));
ENDSEC;
DATA;
#1 = APPLICATION_PROTOCOL_DEFINITION('international standard',
  'automotive_design',2000,#2);
#2 = APPLICATION_CONTEXT(
  'core data for automotive mechanical design processes');
#3 = SHAPE_DEFINITION_REPRESENTATION(#4,#10);
#4 = PRODUCT_DEFINITION_SHAPE('','',#5);
#5 = PRODUCT_DEFINITION('design','',#6,#9);
#6 = PRODUCT_DEFINITION_FORMATION('','',#7);
#7 = PRODUCT('Open CASCADE STEP translator 7.9 2',
  'Open CASCADE STEP translator 7.9 2','',(#8));
#8 = PRODUCT_CONTEXT('',#2,'mechanical');
#9 = PRODUCT_DEFINITION_CONTEXT('part definition',#2,'design');
#10 = ADVANCED_BREP_SHAPE_REPRESENTATION('',(#11,#15),#1661);
#11 = AXIS2_PLACEMENT_3D('',#12,#13,#14);
#12 = CARTESIAN_POINT('',(0.,0.,0.));
#13 = DIRECTION('',(0.,0.,1.));
#14 = DIRECTION('',(1.,0.,-0.));
#15 = MANIFOLD_SOLID_BREP('',#16);
#16 = CLOSED_SHELL('',(#17,#815,#862,#932,#958,#985,#1037,#1150,#1199,
    #1225,#1232,#1257,#1327,#1353,#1384,#1462,#1513,#1562,#1588,#1595,
    #1647,#1652,#1657));
#17 = ADVANCED_FACE('',(#18),#32,.T.);
#18 = FACE_BOUND('',#19,.F.);
#19 = EDGE_LOOP('',(#20,#48,#73,#74,#102,#129,#161,#188,#263,#348,#375,
    #407,#434,#462,#489,#521,#548,#633,#708,#735,#767,#794));
#20 = ORIENTED_EDGE('',*,*,#21,.F.);
#21 = EDGE_CURVE('',#22,#24,#26,.T.);
#22 = VERTEX_POINT('',#23);
#23 = CARTESIAN_POINT('',(60.,0.,95.));
#24 = VERTEX_POINT('',#25);
#25 = CARTESIAN_POINT('',(60.,0.,150.));
#26 = SEAM_CURVE('',#27,(#31,#42),.PCURVE_S1.);
#27 = LINE('',#28,#29);
#28 = CARTESIAN_POINT('',(60.,0.,95.));
#29 = VECTOR('',#30,1.);
#30 = DIRECTION('',(0.,0.,1.));
#31 = PCURVE('',#32,#37);
#32 = CYLINDRICAL_SURFACE('',#33,60.);
#33 = AXIS2_PLACEMENT_3D('',#34,#35,#36);
#34 = CARTESIAN_POINT('',(0.,0.,95.));
#35 = DIRECTION('',(-0.,-0.,-1.));
#36 = DIRECTION('',(1.,0.,0.));
#37 = DEFINITIONAL_REPRESENTATION('',(#38),#41);
#38 = B_SPLINE_CURVE_WITH_KNOTS('',1,(#39,#40),.UNSPECIFIED.,.F.,.F.,(2,
    2),(0.,55.),.PIECEWISE_BEZIER_KNOTS.);
#39 = CARTESIAN_POINT('',(-6.28318530718,0.));
#40 = CARTESIAN_POINT('',(-6.28318530718,-55.));
#41 = ( GEOMETRIC_REPRESENTATION_CONTEXT(2) 
PARAMETRIC_REPRESENTATION_CONTEXT() REPRESENTATION_CONTEXT('2D SPACE',''
  ) );
#42 = PCURVE('',#32,#43);
#43 = DEFINITIONAL_REPRESENTATION('',(#44),#47);
#44 = B_SPLINE_CURVE_WITH_KNOTS('',1,(#45,#46),.UNSPECIFIED.,.F.,.F.,(2,
    2),(0.,55.),.PIECEWISE_BEZIER_KNOTS.);
#45 = CARTESIAN_POINT('',(0.,0.));
#46 = CARTESIAN_POINT('',(0.,-55.));
#47 = ( GEOMETRIC_REPRESENTATION_CONTEXT(2) 
PARAMETRIC_REPRESENTATION_CONTEXT() REPRESENTATION_CONTEXT('2D SPACE',''
  ) );
#48 = ORIENTED_EDGE('',*,*,#49,.F.);
#49 = EDGE_CURVE('',#22,#22,#50,.T.);
#50 = SURFACE_CURVE('',#51,(#56,#62),.PCURVE_S1.);
#51 = CIRCLE('',#52,60.);
#52 = AXIS2_PLACEMENT_3D('',#53,#54,#55);
#53 = CARTESIAN_POINT('',(0.,0.,95.));
#54 = DIRECTION('',(0.,0.,1.));
#55 = DIRECTION('',(1.,0.,0.));
#56 = PCURVE('',#32,#57);
#57 = DEFINITIONAL_REPRESENTATION('',(#58),#61);
#58 = B_SPLINE_CURVE_WITH_KNOTS('',1,(#59,#60),.UNSPECIFIED.,.F.,.F.,(2,
    2),(0.,6.28318530718),.PIECEWISE_BEZIER_KNOTS.);
#59 = CARTESIAN_POINT('',(0.,0.));
#60 = CARTESIAN_POINT('',(-6.28318530718,0.));
#61 = ( GEOMETRIC_REPRESENTATION_CONTEXT(2) 
PARAMETRIC_REPRESENTATION_CONTEXT() REPRESENTATION_CONTEXT('2D SPACE',''
  ) );
#62 = PCURVE('',#63,#68);
#63 = CYLINDRICAL_SURFACE('',#64,60.);
#64 = AXIS2_PLACEMENT_3D('',#65,#66,#67);
#65 = CARTESIAN_POINT('',(0.,0.,95.));
#66 = DIRECTION('',(0.,0.,1.));
#67 = DIRECTION('',(1.,0.,0.));
#68 = DEFINITIONAL_REPRESENTATION('',(#69),#72);
#69 = B_SPLINE_CURVE_WITH_KNOTS('',1,(#70,#71),.UNSPECIFIED.,.F.,.F.,(2,
    2),(0.,6.28318530718),.PIECEWISE_BEZIER_KNOTS.);
#70 = CARTESIAN_POINT('',(0.,0.));
#71 = CARTESIAN_POINT('',(6.28318530718,0.));
#72 = ( GEOMETRIC_REPRESENTATION_CONTEXT(2) 
PARAMETRIC_REPRESENTATION_CONTEXT() REPRESENTATION_CONTEXT('2D SPACE',''
  ) );
#73 = ORIENTED_EDGE('',*,*,#21,.T.);
#74 = ORIENTED_EDGE('',*,*,#75,.T.);
#75 = EDGE_CURVE('',#24,#76,#78,.T.);
#76 = VERTEX_POINT('',#77);
#77 = CARTESIAN_POINT('',(50.000000000001,33.166247903552,150.));
#78 = SURFACE_CURVE('',#79,(#84,#90),.PCURVE_S1.);
#79 = CIRCLE('',#80,60.);
#80 = AXIS2_PLACEMENT_3D('',#81,#82,#83);
#81 = CARTESIAN_POINT('',(0.,0.,150.));
#82 = DIRECTION('',(0.,0.,1.));
#83 = DIRECTION('',(1.,0.,0.));
#84 = PCURVE('',#32,#85);
#85 = DEFINITIONAL_REPRESENTATION('',(#86),#89);
#86 = B_SPLINE_CURVE_WITH_KNOTS('',1,(#87,#88),.UNSPECIFIED.,.F.,.F.,(2,
    2),(0.,0.585685543457),.PIECEWISE_BEZIER_KNOTS.);
#87 = CARTESIAN_POINT('',(0.,-55.));
#88 = CARTESIAN_POINT('',(-0.585685543457,-55.));
#89 = ( GEOMETRIC_REPRESENTATION_CONTEXT(2) 
PARAMETRIC_REPRESENTATION_CONTEXT() REPRESENTATION_CONTEXT('2D SPACE',''
  ) );
#90 = PCURVE('',#91,#96);
#91 = PLANE('',#92);
#92 = AXIS2_PLACEMENT_3D('',#93,#94,#95);
#93 = CARTESIAN_POINT('',(0.,3.114834545176E-15,150.));
#94 = DIRECTION('',(0.,0.,1.));
#95 = DIRECTION('',(1.,0.,-0.));
#96 = DEFINITIONAL_REPRESENTATION('',(#97),#101);
#97 = CIRCLE('',#98,60.);
#98 = AXIS2_PLACEMENT_2D('',#99,#100);
#99 = CARTESIAN_POINT('',(0.,-3.114834545176E-15));
#100 = DIRECTION('',(1.,0.));
#101 = ( GEOMETRIC_REPRESENTATION_CONTEXT(2) 
PARAMETRIC_REPRESENTATION_CONTEXT() REPRESENTATION_CONTEXT('2D SPACE',''
  ) );
#102 = ORIENTED_EDGE('',*,*,#103,.T.);
#103 = EDGE_CURVE('',#76,#104,#106,.T.);
#104 = VERTEX_POINT('',#105);
#105 = CARTESIAN_POINT('',(50.,33.166247903554,100.));
#106 = SURFACE_CURVE('',#107,(#111,#117),.PCURVE_S1.);
#107 = LINE('',#108,#109);
#108 = CARTESIAN_POINT('',(50.,33.166247903554,95.));
#109 = VECTOR('',#110,1.);
#110 = DIRECTION('',(-0.,-0.,-1.));
#111 = PCURVE('',#32,#112);
#112 = DEFINITIONAL_REPRESENTATION('',(#113),#116);
#113 = B_SPLINE_CURVE_WITH_KNOTS('',1,(#114,#115),.UNSPECIFIED.,.F.,.F.,
  (2,2),(-55.,-5.),.PIECEWISE_BEZIER_KNOTS.);
#114 = CARTESIAN_POINT('',(-0.585685543457,-55.));
#115 = CARTESIAN_POINT('',(-0.585685543457,-5.));
#116 = ( GEOMETRIC_REPRESENTATION_CONTEXT(2) 
PARAMETRIC_REPRESENTATION_CONTEXT() REPRESENTATION_CONTEXT('2D SPACE',''
  ) );
#117 = PCURVE('',#118,#123);
#118 = PLANE('',#119);
#119 = AXIS2_PLACEMENT_3D('',#120,#121,#122);
#120 = CARTESIAN_POINT('',(50.,-50.,100.));
#121 = DIRECTION('',(1.,0.,0.));
#122 = DIRECTION('',(0.,0.,1.));
#123 = DEFINITIONAL_REPRESENTATION('',(#124),#128);
#124 = LINE('',#125,#126);
#125 = CARTESIAN_POINT('',(-5.,-83.16624790355));
#126 = VECTOR('',#127,1.);
#127 = DIRECTION('',(-1.,0.));
#128 = ( GEOMETRIC_REPRESENTATION_CONTEXT(2) 
PARAMETRIC_REPRESENTATION_CONTEXT() REPRESENTATION_CONTEXT('2D SPACE',''
  ) );
#129 = ORIENTED_EDGE('',*,*,#130,.F.);
#130 = EDGE_CURVE('',#131,#104,#133,.T.);
#131 = VERTEX_POINT('',#132);
#132 = CARTESIAN_POINT('',(33.166247903554,50.,100.));
#133 = SURFACE_CURVE('',#134,(#139,#145),.PCURVE_S1.);
#134 = CIRCLE('',#135,60.);
#135 = AXIS2_PLACEMENT_3D('',#136,#137,#138);
#136 = CARTESIAN_POINT('',(0.,0.,100.));
#137 = DIRECTION('',(0.,0.,-1.));
#138 = DIRECTION('',(1.,0.,0.));
#139 = PCURVE('',#32,#140);
#140 = DEFINITIONAL_REPRESENTATION('',(#141),#144);
#141 = B_SPLINE_CURVE_WITH_KNOTS('',1,(#142,#143),.UNSPECIFIED.,.F.,.F.,
  (2,2),(5.298074523842,5.697499763722),.PIECEWISE_BEZIER_KNOTS.);
#142 = CARTESIAN_POINT('',(-0.985110783338,-5.));
#143 = CARTESIAN_POINT('',(-0.585685543457,-5.));
#144 = ( GEOMETRIC_REPRESENTATION_CONTEXT(2) 
PARAMETRIC_REPRESENTATION_CONTEXT() REPRESENTATION_CONTEXT('2D SPACE',''
  ) );
#145 = PCURVE('',#146,#151);
#146 = PLANE('',#147);
#147 = AXIS2_PLACEMENT_3D('',#148,#149,#150);
#148 = CARTESIAN_POINT('',(-50.,-50.,100.));
#149 = DIRECTION('',(0.,0.,1.));
#150 = DIRECTION('',(1.,0.,0.));
#151 = DEFINITIONAL_REPRESENTATION('',(#152),#160);
#152 = ( BOUNDED_CURVE() B_SPLINE_CURVE(2,(#153,#154,#155,#156,#157,#158
,#159),.UNSPECIFIED.,.T.,.F.) B_SPLINE_CURVE_WITH_KNOTS((1,2,2,2,2,1),(
    -2.094395102393,0.,2.094395102393,4.188790204786,6.28318530718,
8.377580409573),.UNSPECIFIED.) CURVE() GEOMETRIC_REPRESENTATION_ITEM() 
RATIONAL_B_SPLINE_CURVE((1.,0.5,1.,0.5,1.,0.5,1.)) REPRESENTATION_ITEM(
  '') );
#153 = CARTESIAN_POINT('',(110.,50.));
#154 = CARTESIAN_POINT('',(110.,-53.92304845413));
#155 = CARTESIAN_POINT('',(20.,-1.961524227066));
#156 = CARTESIAN_POINT('',(-70.,50.));
#157 = CARTESIAN_POINT('',(20.,101.96152422706));
#158 = CARTESIAN_POINT('',(110.,153.92304845413));
#159 = CARTESIAN_POINT('',(110.,50.));
#160 = ( GEOMETRIC_REPRESENTATION_CONTEXT(2) 
PARAMETRIC_REPRESENTATION_CONTEXT() REPRESENTATION_CONTEXT('2D SPACE',''
  ) );
#161 = ORIENTED_EDGE('',*,*,#162,.F.);
#162 = EDGE_CURVE('',#163,#131,#165,.T.);
#163 = VERTEX_POINT('',#164);
#164 = CARTESIAN_POINT('',(33.166247903554,50.,112.58342613226));
#165 = SURFACE_CURVE('',#166,(#170,#176),.PCURVE_S1.);
#166 = LINE('',#167,#168);
#167 = CARTESIAN_POINT('',(33.166247903554,50.,95.));
#168 = VECTOR('',#169,1.);
#169 = DIRECTION('',(-0.,-0.,-1.));
#170 = PCURVE('',#32,#171);
#171 = DEFINITIONAL_REPRESENTATION('',(#172),#175);
#172 = B_SPLINE_CURVE_WITH_KNOTS('',1,(#173,#174),.UNSPECIFIED.,.F.,.F.,
  (2,2),(-17.58342613226,-5.),.PIECEWISE_BEZIER_KNOTS.);
#173 = CARTESIAN_POINT('',(-0.985110783338,-17.58342613226));
#174 = CARTESIAN_POINT('',(-0.985110783338,-5.));
#175 = ( GEOMETRIC_REPRESENTATION_CONTEXT(2) 
PARAMETRIC_REPRESENTATION_CONTEXT() REPRESENTATION_CONTEXT('2D SPACE',''
  ) );
#176 = PCURVE('',#177,#182);
#177 = PLANE('',#178);
#178 = AXIS2_PLACEMENT_3D('',#179,#180,#181);
#179 = CARTESIAN_POINT('',(-50.,50.,100.));
#180 = DIRECTION('',(0.,1.,0.));
#181 = DIRECTION('',(0.,0.,1.));
#182 = DEFINITIONAL_REPRESENTATION('',(#183),#187);
#183 = LINE('',#184,#185);
#184 = CARTESIAN_POINT('',(-5.,83.166247903554));
#185 = VECTOR('',#186,1.);
#186 = DIRECTION('',(-1.,0.));
#187 = ( GEOMETRIC_REPRESENTATION_CONTEXT(2) 
PARAMETRIC_REPRESENTATION_CONTEXT() REPRESENTATION_CONTEXT('2D SPACE',''
  ) );
#188 = ORIENTED_EDGE('',*,*,#189,.F.);
#189 = EDGE_CURVE('',#190,#163,#192,.T.);
#190 = VERTEX_POINT('',#191);
#191 = CARTESIAN_POINT('',(-9.184850993605E-15,60.,100.));
#192 = SURFACE_CURVE('',#193,(#236,#247),.PCURVE_S1.);
#193 = B_SPLINE_CURVE_WITH_KNOTS('',6,(#194,#195,#196,#197,#198,#199,
    #200,#201,#202,#203,#204,#205,#206,#207,#208,#209,#210,#211,#212,
    #213,#214,#215,#216,#217,#218,#219,#220,#221,#222,#223,#224,#225,
    #226,#227,#228,#229,#230,#231,#232,#233,#234,#235),.UNSPECIFIED.,.F.
  ,.F.,(7,5,5,5,5,5,5,5,7),(0.,9.206967710182E-02,0.196323954979,
    0.338496406433,0.496883918711,0.749052854026,0.864245369523,
    0.961438777526,1.),.UNSPECIFIED.);
#194 = CARTESIAN_POINT('',(-49.9999999964,33.166247908981,150.0006));
#195 = CARTESIAN_POINT('',(-50.00003506798,33.166195036574,
    147.07796774964));
#196 = CARTESIAN_POINT('',(-49.79486740928,33.474985377608,
    144.20261164405));
#197 = CARTESIAN_POINT('',(-49.39787688218,34.075025310045,
    141.38128686638));
#198 = CARTESIAN_POINT('',(-48.81630137113,34.918743976598,
    138.6318178056));
#199 = CARTESIAN_POINT('',(-48.06854198488,35.935886491845,
    135.98840447004));
#200 = CARTESIAN_POINT('',(-46.2196450554,38.291954203256,
    130.69705216788));
#201 = CARTESIAN_POINT('',(-45.06114172534,39.686983153574,
    128.02506195332));
#202 = CARTESIAN_POINT('',(-43.74732857693,41.152367935732,
    125.49884613722));
#203 = CARTESIAN_POINT('',(-42.30277131408,42.6346862338,123.12238723274
    ));
#204 = CARTESIAN_POINT('',(-40.74186944879,44.102548542245,
    120.88995872144));
#205 = CARTESIAN_POINT('',(-36.75577104905,47.520420742678,
    115.90339089289));
#206 = CARTESIAN_POINT('',(-34.22211083425,49.451190875271,
    113.25516662617));
#207 = CARTESIAN_POINT('',(-31.49720638452,51.25862515356,
    110.87221973353));
#208 = CARTESIAN_POINT('',(-28.6303502918,52.893542871304,
    108.77067518702));
#209 = CARTESIAN_POINT('',(-25.64344962371,54.349899655026,
    106.93256812742));
#210 = CARTESIAN_POINT('',(-18.99806612914,57.038091785328,
    103.58393483887));
#211 = CARTESIAN_POINT('',(-15.33875920644,58.210436673648,
    102.15328394262));
#212 = CARTESIAN_POINT('',(-11.57197282027,59.101982428006,
    101.0777550028));
#213 = CARTESIAN_POINT('',(-7.74068331114,59.699344450839,100.360724661)
  );
#214 = CARTESIAN_POINT('',(-3.877300005002,60.,100.));
#215 = CARTESIAN_POINT('',(6.173053671307,60.,100.));
#216 = CARTESIAN_POINT('',(12.152365657324,59.237617547533,
    100.91431855206));
#217 = CARTESIAN_POINT('',(18.061609716013,57.80364767436,
    102.63765523749));
#218 = CARTESIAN_POINT('',(23.80568129624,55.609323378964,105.3018608274
    ));
#219 = CARTESIAN_POINT('',(29.098446134739,52.770723464144,
    108.85651900736));
#220 = CARTESIAN_POINT('',(35.856422158938,48.175550540193,
    115.03486416524));
#221 = CARTESIAN_POINT('',(37.842041419352,46.666566616705,
    117.11825299153));
#222 = CARTESIAN_POINT('',(39.715305373321,45.092002849731,
    119.36700229542));
#223 = CARTESIAN_POINT('',(41.460996581407,43.468678459219,
    121.79289382694));
#224 = CARTESIAN_POINT('',(43.052266892678,41.84405505418,
    124.38683688123));
#225 = CARTESIAN_POINT('',(45.655661661246,38.97061805232,
    129.44893314546));
#226 = CARTESIAN_POINT('',(46.733007192851,37.688166263391,
    131.89929130417));
#227 = CARTESIAN_POINT('',(47.673931865284,36.480872604991,
    134.47673595526));
#228 = CARTESIAN_POINT('',(48.46008420904,35.406443172036,
    137.17063287583));
#229 = CARTESIAN_POINT('',(49.07346814236,34.530347007468,
    139.97482931096));
#230 = CARTESIAN_POINT('',(49.659120795573,33.675782373632,
    144.0550321631));
#231 = CARTESIAN_POINT('',(49.794370271697,33.47529576429,
    145.22911276657));
#232 = CARTESIAN_POINT('',(49.896899820148,33.321693533135,
    146.41415634263));
#233 = CARTESIAN_POINT('',(49.965626763857,33.218123049775,
    147.60644775969));
#234 = CARTESIAN_POINT('',(50.,33.166247903554,148.80268916808));
#235 = CARTESIAN_POINT('',(50.,33.166247903554,150.));
#236 = PCURVE('',#32,#237);
#237 = DEFINITIONAL_REPRESENTATION('',(#238),#246);
#238 = B_SPLINE_CURVE_WITH_KNOTS('',6,(#239,#240,#241,#242,#243,#244,
    #245),.UNSPECIFIED.,.F.,.F.,(7,7),(0.496883918711,0.743915359507),
  .PIECEWISE_BEZIER_KNOTS.);
#239 = CARTESIAN_POINT('',(-1.570796326795,-5.));
#240 = CARTESIAN_POINT('',(-1.470008182488,-5.));
#241 = CARTESIAN_POINT('',(-1.372306533975,-5.877442821105));
#242 = CARTESIAN_POINT('',(-1.273990419968,-7.533333741901));
#243 = CARTESIAN_POINT('',(-1.174938498859,-10.08708571521));
#244 = CARTESIAN_POINT('',(-1.077288063115,-13.49811984277));
#245 = CARTESIAN_POINT('',(-0.985110817373,-17.58342559946));
#246 = ( GEOMETRIC_REPRESENTATION_CONTEXT(2) 
PARAMETRIC_REPRESENTATION_CONTEXT() REPRESENTATION_CONTEXT('2D SPACE',''
  ) );
#247 = PCURVE('',#248,#253);
#248 = CYLINDRICAL_SURFACE('',#249,50.);
#249 = AXIS2_PLACEMENT_3D('',#250,#251,#252);
#250 = CARTESIAN_POINT('',(0.,0.,150.));
#251 = DIRECTION('',(0.,-1.,0.));
#252 = DIRECTION('',(1.,0.,0.));
#253 = DEFINITIONAL_REPRESENTATION('',(#254),#262);
#254 = B_SPLINE_CURVE_WITH_KNOTS('',6,(#255,#256,#257,#258,#259,#260,
    #261),.UNSPECIFIED.,.F.,.F.,(7,7),(0.496883918711,0.743915359507),
  .PIECEWISE_BEZIER_KNOTS.);
#255 = CARTESIAN_POINT('',(4.712388980385,-60.));
#256 = CARTESIAN_POINT('',(4.833334753553,-60.));
#257 = CARTESIAN_POINT('',(4.950579351723,-59.26836548559));
#258 = CARTESIAN_POINT('',(5.069513867998,-57.89045441628));
#259 = CARTESIAN_POINT('',(5.191076431157,-55.78625460899));
#260 = CARTESIAN_POINT('',(5.314465299317,-53.05719681665));
#261 = CARTESIAN_POINT('',(5.437642168449,-50.00000258658));
#262 = ( GEOMETRIC_REPRESENTATION_CONTEXT(2) 
PARAMETRIC_REPRESENTATION_CONTEXT() REPRESENTATION_CONTEXT('2D SPACE',''
  ) );
#263 = ORIENTED_EDGE('',*,*,#264,.F.);
#264 = EDGE_CURVE('',#265,#190,#267,.T.);
#265 = VERTEX_POINT('',#266);
#266 = CARTESIAN_POINT('',(-33.16624790355,50.,112.58342613226));
#267 = SURFACE_CURVE('',#268,(#311,#327),.PCURVE_S1.);
#268 = B_SPLINE_CURVE_WITH_KNOTS('',6,(#269,#270,#271,#272,#273,#274,
    #275,#276,#277,#278,#279,#280,#281,#282,#283,#284,#285,#286,#287,
    #288,#289,#290,#291,#292,#293,#294,#295,#296,#297,#298,#299,#300,
    #301,#302,#303,#304,#305,#306,#307,#308,#309,#310),.UNSPECIFIED.,.F.
  ,.F.,(7,5,5,5,5,5,5,5,7),(0.,9.206967710182E-02,0.196323954979,
    0.338496406433,0.496883918711,0.749052854026,0.864245369523,
    0.961438777526,1.),.UNSPECIFIED.);
#269 = CARTESIAN_POINT('',(-49.9999999964,33.166247908981,150.0006));
#270 = CARTESIAN_POINT('',(-50.00003506798,33.166195036574,
    147.07796774964));
#271 = CARTESIAN_POINT('',(-49.79486740928,33.474985377608,
    144.20261164405));
#272 = CARTESIAN_POINT('',(-49.39787688218,34.075025310045,
    141.38128686638));
#273 = CARTESIAN_POINT('',(-48.81630137113,34.918743976598,
    138.6318178056));
#274 = CARTESIAN_POINT('',(-48.06854198488,35.935886491845,
    135.98840447004));
#275 = CARTESIAN_POINT('',(-46.2196450554,38.291954203256,
    130.69705216788));
#276 = CARTESIAN_POINT('',(-45.06114172534,39.686983153574,
    128.02506195332));
#277 = CARTESIAN_POINT('',(-43.74732857693,41.152367935732,
    125.49884613722));
#278 = CARTESIAN_POINT('',(-42.30277131408,42.6346862338,123.12238723274
    ));
#279 = CARTESIAN_POINT('',(-40.74186944879,44.102548542245,
    120.88995872144));
#280 = CARTESIAN_POINT('',(-36.75577104905,47.520420742678,
    115.90339089289));
#281 = CARTESIAN_POINT('',(-34.22211083425,49.451190875271,
    113.25516662617));
#282 = CARTESIAN_POINT('',(-31.49720638452,51.25862515356,
    110.87221973353));
#283 = CARTESIAN_POINT('',(-28.6303502918,52.893542871304,
    108.77067518702));
#284 = CARTESIAN_POINT('',(-25.64344962371,54.349899655026,
    106.93256812742));
#285 = CARTESIAN_POINT('',(-18.99806612914,57.038091785328,
    103.58393483887));
#286 = CARTESIAN_POINT('',(-15.33875920644,58.210436673648,
    102.15328394262));
#287 = CARTESIAN_POINT('',(-11.57197282027,59.101982428006,
    101.0777550028));
#288 = CARTESIAN_POINT('',(-7.74068331114,59.699344450839,100.360724661)
  );
#289 = CARTESIAN_POINT('',(-3.877300005002,60.,100.));
#290 = CARTESIAN_POINT('',(6.173053671307,60.,100.));
#291 = CARTESIAN_POINT('',(12.152365657324,59.237617547533,
    100.91431855206));
#292 = CARTESIAN_POINT('',(18.061609716013,57.80364767436,
    102.63765523749));
#293 = CARTESIAN_POINT('',(23.80568129624,55.609323378964,105.3018608274
    ));
#294 = CARTESIAN_POINT('',(29.098446134739,52.770723464144,
    108.85651900736));
#295 = CARTESIAN_POINT('',(35.856422158938,48.175550540193,
    115.03486416524));
#296 = CARTESIAN_POINT('',(37.842041419352,46.666566616705,
    117.11825299153));
#297 = CARTESIAN_POINT('',(39.715305373321,45.092002849731,
    119.36700229542));
#298 = CARTESIAN_POINT('',(41.460996581407,43.468678459219,
    121.79289382694));
#299 = CARTESIAN_POINT('',(43.052266892678,41.84405505418,
    124.38683688123));
#300 = CARTESIAN_POINT('',(45.655661661246,38.97061805232,
    129.44893314546));
#301 = CARTESIAN_POINT('',(46.733007192851,37.688166263391,
    131.89929130417));
#302 = CARTESIAN_POINT('',(47.673931865284,36.480872604991,
    134.47673595526));
#303 = CARTESIAN_POINT('',(48.46008420904,35.406443172036,
    137.17063287583));
#304 = CARTESIAN_POINT('',(49.07346814236,34.530347007468,
    139.97482931096));
#305 = CARTESIAN_POINT('',(49.659120795573,33.675782373632,
    144.0550321631));
#306 = CARTESIAN_POINT('',(49.794370271697,33.47529576429,
    145.22911276657));
#307 = CARTESIAN_POINT('',(49.896899820148,33.321693533135,
    146.41415634263));
#308 = CARTESIAN_POINT('',(49.965626763857,33.218123049775,
    147.60644775969));
#309 = CARTESIAN_POINT('',(50.,33.166247903554,148.80268916808));
#310 = CARTESIAN_POINT('',(50.,33.166247903554,150.));
#311 = PCURVE('',#32,#312);
#312 = DEFINITIONAL_REPRESENTATION('',(#313),#326);
#313 = B_SPLINE_CURVE_WITH_KNOTS('',6,(#314,#315,#316,#317,#318,#319,
    #320,#321,#322,#323,#324,#325),.UNSPECIFIED.,.F.,.F.,(7,5,7),(
    0.251993751118,0.338496406433,0.496883918711),.UNSPECIFIED.);
#314 = CARTESIAN_POINT('',(-2.156481901557,-17.58342663664));
#315 = CARTESIAN_POINT('',(-2.123720362727,-16.13142694791));
#316 = CARTESIAN_POINT('',(-2.090561148733,-14.77761196677));
#317 = CARTESIAN_POINT('',(-2.057137583325,-13.52415800307));
#318 = CARTESIAN_POINT('',(-2.02349703915,-12.3701597429));
#319 = CARTESIAN_POINT('',(-1.98957891499,-11.31233338223));
#320 = CARTESIAN_POINT('',(-1.892233005309,-8.583934838871));
#321 = CARTESIAN_POINT('',(-1.828371709562,-7.153283942625));
#322 = CARTESIAN_POINT('',(-1.764141582813,-6.077755002801));
#323 = CARTESIAN_POINT('',(-1.699811486677,-5.360724661002));
#324 = CARTESIAN_POINT('',(-1.635417993545,-5.));
#325 = CARTESIAN_POINT('',(-1.570796326795,-5.));
#326 = ( GEOMETRIC_REPRESENTATION_CONTEXT(2) 
PARAMETRIC_REPRESENTATION_CONTEXT() REPRESENTATION_CONTEXT('2D SPACE',''
  ) );
#327 = PCURVE('',#328,#333);
#328 = CYLINDRICAL_SURFACE('',#329,50.);
#329 = AXIS2_PLACEMENT_3D('',#330,#331,#332);
#330 = CARTESIAN_POINT('',(0.,0.,150.));
#331 = DIRECTION('',(0.,-1.,0.));
#332 = DIRECTION('',(1.,0.,0.));
#333 = DEFINITIONAL_REPRESENTATION('',(#334),#347);
#334 = B_SPLINE_CURVE_WITH_KNOTS('',6,(#335,#336,#337,#338,#339,#340,
    #341,#342,#343,#344,#345,#346),.UNSPECIFIED.,.F.,.F.,(7,5,7),(
    0.251993751118,0.338496406433,0.496883918711),.UNSPECIFIED.);
#335 = CARTESIAN_POINT('',(3.987135727314,-49.99999875894));
#336 = CARTESIAN_POINT('',(4.030915168364,-51.08657627108));
#337 = CARTESIAN_POINT('',(4.074328973595,-52.12194451912));
#338 = CARTESIAN_POINT('',(4.117381281965,-53.09665050521));
#339 = CARTESIAN_POINT('',(4.160144251426,-54.00573020493));
#340 = CARTESIAN_POINT('',(4.2027898427,-54.84780731384));
#341 = CARTESIAN_POINT('',(4.324051916935,-57.03809178532));
#342 = CARTESIAN_POINT('',(4.402279817932,-58.21043667364));
#343 = CARTESIAN_POINT('',(4.480119612079,-59.101982428));
#344 = CARTESIAN_POINT('',(4.557570138675,-59.69934445083));
#345 = CARTESIAN_POINT('',(4.634842980285,-60.));
#346 = CARTESIAN_POINT('',(4.712388980385,-60.));
#347 = ( GEOMETRIC_REPRESENTATION_CONTEXT(2) 
PARAMETRIC_REPRESENTATION_CONTEXT() REPRESENTATION_CONTEXT('2D SPACE',''
  ) );
#348 = ORIENTED_EDGE('',*,*,#349,.T.);
#349 = EDGE_CURVE('',#265,#350,#352,.T.);
#350 = VERTEX_POINT('',#351);
#351 = CARTESIAN_POINT('',(-33.16624790355,50.,100.));
#352 = SURFACE_CURVE('',#353,(#357,#363),.PCURVE_S1.);
#353 = LINE('',#354,#355);
#354 = CARTESIAN_POINT('',(-33.16624790355,50.,95.));
#355 = VECTOR('',#356,1.);
#356 = DIRECTION('',(-0.,-0.,-1.));
#357 = PCURVE('',#32,#358);
#358 = DEFINITIONAL_REPRESENTATION('',(#359),#362);
#359 = B_SPLINE_CURVE_WITH_KNOTS('',1,(#360,#361),.UNSPECIFIED.,.F.,.F.,
  (2,2),(-17.58342613226,-5.),.PIECEWISE_BEZIER_KNOTS.);
#360 = CARTESIAN_POINT('',(-2.156481870252,-17.58342613226));
#361 = CARTESIAN_POINT('',(-2.156481870252,-5.));
#362 = ( GEOMETRIC_REPRESENTATION_CONTEXT(2) 
PARAMETRIC_REPRESENTATION_CONTEXT() REPRESENTATION_CONTEXT('2D SPACE',''
  ) );
#363 = PCURVE('',#364,#369);
#364 = PLANE('',#365);
#365 = AXIS2_PLACEMENT_3D('',#366,#367,#368);
#366 = CARTESIAN_POINT('',(-50.,50.,100.));
#367 = DIRECTION('',(0.,1.,0.));
#368 = DIRECTION('',(0.,0.,1.));
#369 = DEFINITIONAL_REPRESENTATION('',(#370),#374);
#370 = LINE('',#371,#372);
#371 = CARTESIAN_POINT('',(-5.,16.833752096446));
#372 = VECTOR('',#373,1.);
#373 = DIRECTION('',(-1.,0.));
#374 = ( GEOMETRIC_REPRESENTATION_CONTEXT(2) 
PARAMETRIC_REPRESENTATION_CONTEXT() REPRESENTATION_CONTEXT('2D SPACE',''
  ) );
#375 = ORIENTED_EDGE('',*,*,#376,.F.);
#376 = EDGE_CURVE('',#377,#350,#379,.T.);
#377 = VERTEX_POINT('',#378);
#378 = CARTESIAN_POINT('',(-50.,33.166247903554,100.));
#379 = SURFACE_CURVE('',#380,(#385,#391),.PCURVE_S1.);
#380 = CIRCLE('',#381,60.);
#381 = AXIS2_PLACEMENT_3D('',#382,#383,#384);
#382 = CARTESIAN_POINT('',(0.,0.,100.));
#383 = DIRECTION('',(0.,0.,-1.));
#384 = DIRECTION('',(1.,0.,0.));
#385 = PCURVE('',#32,#386);
#386 = DEFINITIONAL_REPRESENTATION('',(#387),#390);
#387 = B_SPLINE_CURVE_WITH_KNOTS('',1,(#388,#389),.UNSPECIFIED.,.F.,.F.,
  (2,2),(3.727278197047,4.126703436928),.PIECEWISE_BEZIER_KNOTS.);
#388 = CARTESIAN_POINT('',(-2.555907110133,-5.));
#389 = CARTESIAN_POINT('',(-2.156481870252,-5.));
#390 = ( GEOMETRIC_REPRESENTATION_CONTEXT(2) 
PARAMETRIC_REPRESENTATION_CONTEXT() REPRESENTATION_CONTEXT('2D SPACE',''
  ) );
#391 = PCURVE('',#392,#397);
#392 = PLANE('',#393);
#393 = AXIS2_PLACEMENT_3D('',#394,#395,#396);
#394 = CARTESIAN_POINT('',(-50.,-50.,100.));
#395 = DIRECTION('',(0.,0.,1.));
#396 = DIRECTION('',(1.,0.,0.));
#397 = DEFINITIONAL_REPRESENTATION('',(#398),#406);
#398 = ( BOUNDED_CURVE() B_SPLINE_CURVE(2,(#399,#400,#401,#402,#403,#404
,#405),.UNSPECIFIED.,.T.,.F.) B_SPLINE_CURVE_WITH_KNOTS((1,2,2,2,2,1),(
    -2.094395102393,0.,2.094395102393,4.188790204786,6.28318530718,
8.377580409573),.UNSPECIFIED.) CURVE() GEOMETRIC_REPRESENTATION_ITEM() 
RATIONAL_B_SPLINE_CURVE((1.,0.5,1.,0.5,1.,0.5,1.)) REPRESENTATION_ITEM(
  '') );
#399 = CARTESIAN_POINT('',(110.,50.));
#400 = CARTESIAN_POINT('',(110.,-53.92304845413));
#401 = CARTESIAN_POINT('',(20.,-1.961524227066));
#402 = CARTESIAN_POINT('',(-70.,50.));
#403 = CARTESIAN_POINT('',(20.,101.96152422706));
#404 = CARTESIAN_POINT('',(110.,153.92304845413));
#405 = CARTESIAN_POINT('',(110.,50.));
#406 = ( GEOMETRIC_REPRESENTATION_CONTEXT(2) 
PARAMETRIC_REPRESENTATION_CONTEXT() REPRESENTATION_CONTEXT('2D SPACE',''
  ) );
#407 = ORIENTED_EDGE('',*,*,#408,.F.);
#408 = EDGE_CURVE('',#409,#377,#411,.T.);
#409 = VERTEX_POINT('',#410);
#410 = CARTESIAN_POINT('',(-50.,33.166247903554,150.));
#411 = SURFACE_CURVE('',#412,(#416,#422),.PCURVE_S1.);
#412 = LINE('',#413,#414);
#413 = CARTESIAN_POINT('',(-50.,33.166247903554,95.));
#414 = VECTOR('',#415,1.);
#415 = DIRECTION('',(-0.,-0.,-1.));
#416 = PCURVE('',#32,#417);
#417 = DEFINITIONAL_REPRESENTATION('',(#418),#421);
#418 = B_SPLINE_CURVE_WITH_KNOTS('',1,(#419,#420),.UNSPECIFIED.,.F.,.F.,
  (2,2),(-55.,-5.),.PIECEWISE_BEZIER_KNOTS.);
#419 = CARTESIAN_POINT('',(-2.555907110133,-55.));
#420 = CARTESIAN_POINT('',(-2.555907110133,-5.));
#421 = ( GEOMETRIC_REPRESENTATION_CONTEXT(2) 
PARAMETRIC_REPRESENTATION_CONTEXT() REPRESENTATION_CONTEXT('2D SPACE',''
  ) );
#422 = PCURVE('',#423,#428);
#423 = PLANE('',#424);
#424 = AXIS2_PLACEMENT_3D('',#425,#426,#427);
#425 = CARTESIAN_POINT('',(-50.,-50.,100.));
#426 = DIRECTION('',(1.,0.,0.));
#427 = DIRECTION('',(0.,0.,1.));
#428 = DEFINITIONAL_REPRESENTATION('',(#429),#433);
#429 = LINE('',#430,#431);
#430 = CARTESIAN_POINT('',(-5.,-83.16624790355));
#431 = VECTOR('',#432,1.);
#432 = DIRECTION('',(-1.,0.));
#433 = ( GEOMETRIC_REPRESENTATION_CONTEXT(2) 
PARAMETRIC_REPRESENTATION_CONTEXT() REPRESENTATION_CONTEXT('2D SPACE',''
  ) );
#434 = ORIENTED_EDGE('',*,*,#435,.T.);
#435 = EDGE_CURVE('',#409,#436,#438,.T.);
#436 = VERTEX_POINT('',#437);
#437 = CARTESIAN_POINT('',(-50.,-33.16624790355,150.));
#438 = SURFACE_CURVE('',#439,(#444,#450),.PCURVE_S1.);
#439 = CIRCLE('',#440,60.);
#440 = AXIS2_PLACEMENT_3D('',#441,#442,#443);
#441 = CARTESIAN_POINT('',(0.,0.,150.));
#442 = DIRECTION('',(0.,0.,1.));
#443 = DIRECTION('',(1.,0.,0.));
#444 = PCURVE('',#32,#445);
#445 = DEFINITIONAL_REPRESENTATION('',(#446),#449);
#446 = B_SPLINE_CURVE_WITH_KNOTS('',1,(#447,#448),.UNSPECIFIED.,.F.,.F.,
  (2,2),(2.555907110133,3.727278197047),.PIECEWISE_BEZIER_KNOTS.);
#447 = CARTESIAN_POINT('',(-2.555907110133,-55.));
#448 = CARTESIAN_POINT('',(-3.727278197047,-55.));
#449 = ( GEOMETRIC_REPRESENTATION_CONTEXT(2) 
PARAMETRIC_REPRESENTATION_CONTEXT() REPRESENTATION_CONTEXT('2D SPACE',''
  ) );
#450 = PCURVE('',#451,#456);
#451 = PLANE('',#452);
#452 = AXIS2_PLACEMENT_3D('',#453,#454,#455);
#453 = CARTESIAN_POINT('',(0.,3.114834545176E-15,150.));
#454 = DIRECTION('',(0.,0.,1.));
#455 = DIRECTION('',(1.,0.,-0.));
#456 = DEFINITIONAL_REPRESENTATION('',(#457),#461);
#457 = CIRCLE('',#458,60.);
#458 = AXIS2_PLACEMENT_2D('',#459,#460);
#459 = CARTESIAN_POINT('',(0.,-3.114834545176E-15));
#460 = DIRECTION('',(1.,0.));
#461 = ( GEOMETRIC_REPRESENTATION_CONTEXT(2) 
PARAMETRIC_REPRESENTATION_CONTEXT() REPRESENTATION_CONTEXT('2D SPACE',''
  ) );
#462 = ORIENTED_EDGE('',*,*,#463,.T.);
#463 = EDGE_CURVE('',#436,#464,#466,.T.);
#464 = VERTEX_POINT('',#465);
#465 = CARTESIAN_POINT('',(-50.,-33.16624790355,100.));
#466 = SURFACE_CURVE('',#467,(#471,#477),.PCURVE_S1.);
#467 = LINE('',#468,#469);
#468 = CARTESIAN_POINT('',(-50.,-33.16624790355,95.));
#469 = VECTOR('',#470,1.);
#470 = DIRECTION('',(-0.,-0.,-1.));
#471 = PCURVE('',#32,#472);
#472 = DEFINITIONAL_REPRESENTATION('',(#473),#476);
#473 = B_SPLINE_CURVE_WITH_KNOTS('',1,(#474,#475),.UNSPECIFIED.,.F.,.F.,
  (2,2),(-55.,-5.),.PIECEWISE_BEZIER_KNOTS.);
#474 = CARTESIAN_POINT('',(-3.727278197047,-55.));
#475 = CARTESIAN_POINT('',(-3.727278197047,-5.));
#476 = ( GEOMETRIC_REPRESENTATION_CONTEXT(2) 
PARAMETRIC_REPRESENTATION_CONTEXT() REPRESENTATION_CONTEXT('2D SPACE',''
  ) );
#477 = PCURVE('',#478,#483);
#478 = PLANE('',#479);
#479 = AXIS2_PLACEMENT_3D('',#480,#481,#482);
#480 = CARTESIAN_POINT('',(-50.,-50.,100.));
#481 = DIRECTION('',(1.,0.,0.));
#482 = DIRECTION('',(0.,0.,1.));
#483 = DEFINITIONAL_REPRESENTATION('',(#484),#488);
#484 = LINE('',#485,#486);
#485 = CARTESIAN_POINT('',(-5.,-16.83375209644));
#486 = VECTOR('',#487,1.);
#487 = DIRECTION('',(-1.,0.));
#488 = ( GEOMETRIC_REPRESENTATION_CONTEXT(2) 
PARAMETRIC_REPRESENTATION_CONTEXT() REPRESENTATION_CONTEXT('2D SPACE',''
  ) );
#489 = ORIENTED_EDGE('',*,*,#490,.F.);
#490 = EDGE_CURVE('',#491,#464,#493,.T.);
#491 = VERTEX_POINT('',#492);
#492 = CARTESIAN_POINT('',(-33.16624790355,-50.,100.));
#493 = SURFACE_CURVE('',#494,(#499,#505),.PCURVE_S1.);
#494 = CIRCLE('',#495,60.);
#495 = AXIS2_PLACEMENT_3D('',#496,#497,#498);
#496 = CARTESIAN_POINT('',(0.,0.,100.));
#497 = DIRECTION('',(0.,0.,-1.));
#498 = DIRECTION('',(1.,0.,0.));
#499 = PCURVE('',#32,#500);
#500 = DEFINITIONAL_REPRESENTATION('',(#501),#504);
#501 = B_SPLINE_CURVE_WITH_KNOTS('',1,(#502,#503),.UNSPECIFIED.,.F.,.F.,
  (2,2),(2.156481870252,2.555907110133),.PIECEWISE_BEZIER_KNOTS.);
#502 = CARTESIAN_POINT('',(-4.126703436928,-5.));
#503 = CARTESIAN_POINT('',(-3.727278197047,-5.));
#504 = ( GEOMETRIC_REPRESENTATION_CONTEXT(2) 
PARAMETRIC_REPRESENTATION_CONTEXT() REPRESENTATION_CONTEXT('2D SPACE',''
  ) );
#505 = PCURVE('',#506,#511);
#506 = PLANE('',#507);
#507 = AXIS2_PLACEMENT_3D('',#508,#509,#510);
#508 = CARTESIAN_POINT('',(-50.,-50.,100.));
#509 = DIRECTION('',(0.,0.,1.));
#510 = DIRECTION('',(1.,0.,0.));
#511 = DEFINITIONAL_REPRESENTATION('',(#512),#520);
#512 = ( BOUNDED_CURVE() B_SPLINE_CURVE(2,(#513,#514,#515,#516,#517,#518
,#519),.UNSPECIFIED.,.T.,.F.) B_SPLINE_CURVE_WITH_KNOTS((1,2,2,2,2,1),(
    -2.094395102393,0.,2.094395102393,4.188790204786,6.28318530718,
8.377580409573),.UNSPECIFIED.) CURVE() GEOMETRIC_REPRESENTATION_ITEM() 
RATIONAL_B_SPLINE_CURVE((1.,0.5,1.,0.5,1.,0.5,1.)) REPRESENTATION_ITEM(
  '') );
#513 = CARTESIAN_POINT('',(110.,50.));
#514 = CARTESIAN_POINT('',(110.,-53.92304845413));
#515 = CARTESIAN_POINT('',(20.,-1.961524227066));
#516 = CARTESIAN_POINT('',(-70.,50.));
#517 = CARTESIAN_POINT('',(20.,101.96152422706));
#518 = CARTESIAN_POINT('',(110.,153.92304845413));
#519 = CARTESIAN_POINT('',(110.,50.));
#520 = ( GEOMETRIC_REPRESENTATION_CONTEXT(2) 
PARAMETRIC_REPRESENTATION_CONTEXT() REPRESENTATION_CONTEXT('2D SPACE',''
  ) );
#521 = ORIENTED_EDGE('',*,*,#522,.F.);
#522 = EDGE_CURVE('',#523,#491,#525,.T.);
#523 = VERTEX_POINT('',#524);
#524 = CARTESIAN_POINT('',(-33.16624790355,-50.,112.58342613226));
#525 = SURFACE_CURVE('',#526,(#530,#536),.PCURVE_S1.);
#526 = LINE('',#527,#528);
#527 = CARTESIAN_POINT('',(-33.16624790355,-50.,95.));
#528 = VECTOR('',#529,1.);
#529 = DIRECTION('',(-0.,-0.,-1.));
#530 = PCURVE('',#32,#531);
#531 = DEFINITIONAL_REPRESENTATION('',(#532),#535);
#532 = B_SPLINE_CURVE_WITH_KNOTS('',1,(#533,#534),.UNSPECIFIED.,.F.,.F.,
  (2,2),(-17.58342613226,-5.),.PIECEWISE_BEZIER_KNOTS.);
#533 = CARTESIAN_POINT('',(-4.126703436928,-17.58342613226));
#534 = CARTESIAN_POINT('',(-4.126703436928,-5.));
#535 = ( GEOMETRIC_REPRESENTATION_CONTEXT(2) 
PARAMETRIC_REPRESENTATION_CONTEXT() REPRESENTATION_CONTEXT('2D SPACE',''
  ) );
#536 = PCURVE('',#537,#542);
#537 = PLANE('',#538);
#538 = AXIS2_PLACEMENT_3D('',#539,#540,#541);
#539 = CARTESIAN_POINT('',(-50.,-50.,100.));
#540 = DIRECTION('',(0.,1.,0.));
#541 = DIRECTION('',(0.,0.,1.));
#542 = DEFINITIONAL_REPRESENTATION('',(#543),#547);
#543 = LINE('',#544,#545);
#544 = CARTESIAN_POINT('',(-5.,16.833752096446));
#545 = VECTOR('',#546,1.);
#546 = DIRECTION('',(-1.,0.));
#547 = ( GEOMETRIC_REPRESENTATION_CONTEXT(2) 
PARAMETRIC_REPRESENTATION_CONTEXT() REPRESENTATION_CONTEXT('2D SPACE',''
  ) );
#548 = ORIENTED_EDGE('',*,*,#549,.T.);
#549 = EDGE_CURVE('',#523,#550,#552,.T.);
#550 = VERTEX_POINT('',#551);
#551 = CARTESIAN_POINT('',(-9.184850993605E-15,-60.,100.));
#552 = SURFACE_CURVE('',#553,(#596,#612),.PCURVE_S1.);
#553 = B_SPLINE_CURVE_WITH_KNOTS('',6,(#554,#555,#556,#557,#558,#559,
    #560,#561,#562,#563,#564,#565,#566,#567,#568,#569,#570,#571,#572,
    #573,#574,#575,#576,#577,#578,#579,#580,#581,#582,#583,#584,#585,
    #586,#587,#588,#589,#590,#591,#592,#593,#594,#595),.UNSPECIFIED.,.F.
  ,.F.,(7,5,5,5,5,5,5,5,7),(0.,9.206967709786E-02,0.196323955047,
    0.338496406501,0.496883918778,0.749052854053,0.864245369536,
    0.961438777529,1.),.UNSPECIFIED.);
#554 = CARTESIAN_POINT('',(-49.9999999964,-33.16624790898,150.0006));
#555 = CARTESIAN_POINT('',(-50.00003506798,-33.16619503657,
    147.07796774964));
#556 = CARTESIAN_POINT('',(-49.79486740928,-33.4749853776,
    144.20261164405));
#557 = CARTESIAN_POINT('',(-49.39787688218,-34.07502531004,
    141.38128686638));
#558 = CARTESIAN_POINT('',(-48.81630137113,-34.91874397659,
    138.6318178056));
#559 = CARTESIAN_POINT('',(-48.06854198488,-35.93588649184,
    135.98840447004));
#560 = CARTESIAN_POINT('',(-46.21964505468,-38.29195420417,
    130.69705216582));
#561 = CARTESIAN_POINT('',(-45.06114172678,-39.68698315204,
    128.02506195619));
#562 = CARTESIAN_POINT('',(-43.74732857674,-41.15236793576,
    125.49884613751));
#563 = CARTESIAN_POINT('',(-42.30277131254,-42.63468623534,
    123.12238723001));
#564 = CARTESIAN_POINT('',(-40.74186944994,-44.10254854125,
    120.88995872288));
#565 = CARTESIAN_POINT('',(-36.75577104908,-47.52042074265,
    115.90339089292));
#566 = CARTESIAN_POINT('',(-34.22211083427,-49.45119087526,
    113.25516662618));
#567 = CARTESIAN_POINT('',(-31.49720638451,-51.25862515357,
    110.87221973352));
#568 = CARTESIAN_POINT('',(-28.63035029177,-52.89354287131,
    108.77067518701));
#569 = CARTESIAN_POINT('',(-25.64344962373,-54.34989965501,
    106.93256812743));
#570 = CARTESIAN_POINT('',(-18.99806612913,-57.03809178533,
    103.58393483886));
#571 = CARTESIAN_POINT('',(-15.33875920643,-58.21043667365,
    102.15328394261));
#572 = CARTESIAN_POINT('',(-11.57197282025,-59.101982428,101.0777550028)
  );
#573 = CARTESIAN_POINT('',(-7.740683311134,-59.69934445083,100.360724661
    ));
#574 = CARTESIAN_POINT('',(-3.877300005033,-60.,100.));
#575 = CARTESIAN_POINT('',(6.173053670445,-60.,100.));
#576 = CARTESIAN_POINT('',(12.152365658496,-59.23761754763,
    100.91431855194));
#577 = CARTESIAN_POINT('',(18.061609715625,-57.80364767408,
    102.63765523785));
#578 = CARTESIAN_POINT('',(23.805681296053,-55.60932337921,
    105.30186082707));
#579 = CARTESIAN_POINT('',(29.098446134835,-52.77072346407,
    108.85651900745));
#580 = CARTESIAN_POINT('',(35.856422158961,-48.17555054017,
    115.03486416526));
#581 = CARTESIAN_POINT('',(37.842041419338,-46.66656661671,
    117.11825299152));
#582 = CARTESIAN_POINT('',(39.715305373319,-45.09200284973,
    119.36700229542));
#583 = CARTESIAN_POINT('',(41.460996581399,-43.46867845922,
    121.79289382692));
#584 = CARTESIAN_POINT('',(43.052266892689,-41.84405505416,
    124.38683688126));
#585 = CARTESIAN_POINT('',(45.655661661269,-38.97061805229,
    129.4489331455));
#586 = CARTESIAN_POINT('',(46.733007192838,-37.6881662634,
    131.89929130416));
#587 = CARTESIAN_POINT('',(47.67393186527,-36.480872605,134.47673595522)
  );
#588 = CARTESIAN_POINT('',(48.460084209046,-35.40644317203,
    137.17063287583));
#589 = CARTESIAN_POINT('',(49.073468142366,-34.53034700745,139.974829311
    ));
#590 = CARTESIAN_POINT('',(49.659120795573,-33.67578237363,
    144.0550321631));
#591 = CARTESIAN_POINT('',(49.794370271697,-33.47529576429,
    145.22911276657));
#592 = CARTESIAN_POINT('',(49.896899820148,-33.32169353313,
    146.41415634263));
#593 = CARTESIAN_POINT('',(49.965626763857,-33.21812304977,
    147.60644775969));
#594 = CARTESIAN_POINT('',(50.,-33.16624790355,148.80268916808));
#595 = CARTESIAN_POINT('',(50.,-33.16624790355,150.));
#596 = PCURVE('',#32,#597);
#597 = DEFINITIONAL_REPRESENTATION('',(#598),#611);
#598 = B_SPLINE_CURVE_WITH_KNOTS('',6,(#599,#600,#601,#602,#603,#604,
    #605,#606,#607,#608,#609,#610),.UNSPECIFIED.,.F.,.F.,(7,5,7),(
    0.251993751185,0.338496406501,0.496883918778),.UNSPECIFIED.);
#599 = CARTESIAN_POINT('',(-4.126703405622,-17.58342663664));
#600 = CARTESIAN_POINT('',(-4.159464944453,-16.1314269479));
#601 = CARTESIAN_POINT('',(-4.192624158447,-14.77761196676));
#602 = CARTESIAN_POINT('',(-4.226047723855,-13.52415800306));
#603 = CARTESIAN_POINT('',(-4.259688268029,-12.3701597429));
#604 = CARTESIAN_POINT('',(-4.29360639219,-11.31233338224));
#605 = CARTESIAN_POINT('',(-4.390952301871,-8.583934838867));
#606 = CARTESIAN_POINT('',(-4.454813597618,-7.153283942619));
#607 = CARTESIAN_POINT('',(-4.519043724366,-6.0777550028));
#608 = CARTESIAN_POINT('',(-4.583373820502,-5.360724661004));
#609 = CARTESIAN_POINT('',(-4.647767313634,-5.));
#610 = CARTESIAN_POINT('',(-4.712388980385,-5.));
#611 = ( GEOMETRIC_REPRESENTATION_CONTEXT(2) 
PARAMETRIC_REPRESENTATION_CONTEXT() REPRESENTATION_CONTEXT('2D SPACE',''
  ) );
#612 = PCURVE('',#613,#618);
#613 = CYLINDRICAL_SURFACE('',#614,50.);
#614 = AXIS2_PLACEMENT_3D('',#615,#616,#617);
#615 = CARTESIAN_POINT('',(0.,0.,150.));
#616 = DIRECTION('',(-0.,1.,-0.));
#617 = DIRECTION('',(1.,0.,0.));
#618 = DEFINITIONAL_REPRESENTATION('',(#619),#632);
#619 = B_SPLINE_CURVE_WITH_KNOTS('',6,(#620,#621,#622,#623,#624,#625,
    #626,#627,#628,#629,#630,#631),.UNSPECIFIED.,.F.,.F.,(7,5,7),(
    0.251993751185,0.338496406501,0.496883918778),.UNSPECIFIED.);
#620 = CARTESIAN_POINT('',(-3.987135727314,-49.99999875894));
#621 = CARTESIAN_POINT('',(-4.030915168364,-51.08657627108));
#622 = CARTESIAN_POINT('',(-4.074328973596,-52.12194451913));
#623 = CARTESIAN_POINT('',(-4.117381281966,-53.09665050522));
#624 = CARTESIAN_POINT('',(-4.160144251426,-54.00573020493));
#625 = CARTESIAN_POINT('',(-4.2027898427,-54.84780731383));
#626 = CARTESIAN_POINT('',(-4.324051916935,-57.03809178533));
#627 = CARTESIAN_POINT('',(-4.402279817933,-58.21043667365));
#628 = CARTESIAN_POINT('',(-4.480119612079,-59.101982428));
#629 = CARTESIAN_POINT('',(-4.557570138675,-59.69934445083));
#630 = CARTESIAN_POINT('',(-4.634842980284,-60.));
#631 = CARTESIAN_POINT('',(-4.712388980385,-60.));
#632 = ( GEOMETRIC_REPRESENTATION_CONTEXT(2) 
PARAMETRIC_REPRESENTATION_CONTEXT() REPRESENTATION_CONTEXT('2D SPACE',''
  ) );
#633 = ORIENTED_EDGE('',*,*,#634,.T.);
#634 = EDGE_CURVE('',#550,#635,#637,.T.);
#635 = VERTEX_POINT('',#636);
#636 = CARTESIAN_POINT('',(33.166247903554,-50.,112.58342613226));
#637 = SURFACE_CURVE('',#638,(#681,#692),.PCURVE_S1.);
#638 = B_SPLINE_CURVE_WITH_KNOTS('',6,(#639,#640,#641,#642,#643,#644,
    #645,#646,#647,#648,#649,#650,#651,#652,#653,#654,#655,#656,#657,
    #658,#659,#660,#661,#662,#663,#664,#665,#666,#667,#668,#669,#670,
    #671,#672,#673,#674,#675,#676,#677,#678,#679,#680),.UNSPECIFIED.,.F.
  ,.F.,(7,5,5,5,5,5,5,5,7),(0.,9.206967709786E-02,0.196323955047,
    0.338496406501,0.496883918778,0.749052854053,0.864245369536,
    0.961438777529,1.),.UNSPECIFIED.);
#639 = CARTESIAN_POINT('',(-49.9999999964,-33.16624790898,150.0006));
#640 = CARTESIAN_POINT('',(-50.00003506798,-33.16619503657,
    147.07796774964));
#641 = CARTESIAN_POINT('',(-49.79486740928,-33.4749853776,
    144.20261164405));
#642 = CARTESIAN_POINT('',(-49.39787688218,-34.07502531004,
    141.38128686638));
#643 = CARTESIAN_POINT('',(-48.81630137113,-34.91874397659,
    138.6318178056));
#644 = CARTESIAN_POINT('',(-48.06854198488,-35.93588649184,
    135.98840447004));
#645 = CARTESIAN_POINT('',(-46.21964505468,-38.29195420417,
    130.69705216582));
#646 = CARTESIAN_POINT('',(-45.06114172678,-39.68698315204,
    128.02506195619));
#647 = CARTESIAN_POINT('',(-43.74732857674,-41.15236793576,
    125.49884613751));
#648 = CARTESIAN_POINT('',(-42.30277131254,-42.63468623534,
    123.12238723001));
#649 = CARTESIAN_POINT('',(-40.74186944994,-44.10254854125,
    120.88995872288));
#650 = CARTESIAN_POINT('',(-36.75577104908,-47.52042074265,
    115.90339089292));
#651 = CARTESIAN_POINT('',(-34.22211083427,-49.45119087526,
    113.25516662618));
#652 = CARTESIAN_POINT('',(-31.49720638451,-51.25862515357,
    110.87221973352));
#653 = CARTESIAN_POINT('',(-28.63035029177,-52.89354287131,
    108.77067518701));
#654 = CARTESIAN_POINT('',(-25.64344962373,-54.34989965501,
    106.93256812743));
#655 = CARTESIAN_POINT('',(-18.99806612913,-57.03809178533,
    103.58393483886));
#656 = CARTESIAN_POINT('',(-15.33875920643,-58.21043667365,
    102.15328394261));
#657 = CARTESIAN_POINT('',(-11.57197282025,-59.101982428,101.0777550028)
  );
#658 = CARTESIAN_POINT('',(-7.740683311134,-59.69934445083,100.360724661
    ));
#659 = CARTESIAN_POINT('',(-3.877300005033,-60.,100.));
#660 = CARTESIAN_POINT('',(6.173053670445,-60.,100.));
#661 = CARTESIAN_POINT('',(12.152365658496,-59.23761754763,
    100.91431855194));
#662 = CARTESIAN_POINT('',(18.061609715625,-57.80364767408,
    102.63765523785));
#663 = CARTESIAN_POINT('',(23.805681296053,-55.60932337921,
    105.30186082707));
#664 = CARTESIAN_POINT('',(29.098446134835,-52.77072346407,
    108.85651900745));
#665 = CARTESIAN_POINT('',(35.856422158961,-48.17555054017,
    115.03486416526));
#666 = CARTESIAN_POINT('',(37.842041419338,-46.66656661671,
    117.11825299152));
#667 = CARTESIAN_POINT('',(39.715305373319,-45.09200284973,
    119.36700229542));
#668 = CARTESIAN_POINT('',(41.460996581399,-43.46867845922,
    121.79289382692));
#669 = CARTESIAN_POINT('',(43.052266892689,-41.84405505416,
    124.38683688126));
#670 = CARTESIAN_POINT('',(45.655661661269,-38.97061805229,
    129.4489331455));
#671 = CARTESIAN_POINT('',(46.733007192838,-37.6881662634,
    131.89929130416));
#672 = CARTESIAN_POINT('',(47.67393186527,-36.480872605,134.47673595522)
  );
#673 = CARTESIAN_POINT('',(48.460084209046,-35.40644317203,
    137.17063287583));
#674 = CARTESIAN_POINT('',(49.073468142366,-34.53034700745,139.974829311
    ));
#675 = CARTESIAN_POINT('',(49.659120795573,-33.67578237363,
    144.0550321631));
#676 = CARTESIAN_POINT('',(49.794370271697,-33.47529576429,
    145.22911276657));
#677 = CARTESIAN_POINT('',(49.896899820148,-33.32169353313,
    146.41415634263));
#678 = CARTESIAN_POINT('',(49.965626763857,-33.21812304977,
    147.60644775969));
#679 = CARTESIAN_POINT('',(50.,-33.16624790355,148.80268916808));
#680 = CARTESIAN_POINT('',(50.,-33.16624790355,150.));
#681 = PCURVE('',#32,#682);
#682 = DEFINITIONAL_REPRESENTATION('',(#683),#691);
#683 = B_SPLINE_CURVE_WITH_KNOTS('',6,(#684,#685,#686,#687,#688,#689,
    #690),.UNSPECIFIED.,.F.,.F.,(7,7),(0.496883918778,0.743915359534),
  .PIECEWISE_BEZIER_KNOTS.);
#684 = CARTESIAN_POINT('',(-4.712388980385,-5.));
#685 = CARTESIAN_POINT('',(-4.813177124677,-5.));
#686 = CARTESIAN_POINT('',(-4.910878773222,-5.877442820981));
#687 = CARTESIAN_POINT('',(-5.009194887207,-7.533333742232));
#688 = CARTESIAN_POINT('',(-5.108246808316,-10.08708571493));
#689 = CARTESIAN_POINT('',(-5.205897244065,-13.49811984282));
#690 = CARTESIAN_POINT('',(-5.298074489807,-17.58342559946));
#691 = ( GEOMETRIC_REPRESENTATION_CONTEXT(2) 
PARAMETRIC_REPRESENTATION_CONTEXT() REPRESENTATION_CONTEXT('2D SPACE',''
  ) );
#692 = PCURVE('',#693,#698);
#693 = CYLINDRICAL_SURFACE('',#694,50.);
#694 = AXIS2_PLACEMENT_3D('',#695,#696,#697);
#695 = CARTESIAN_POINT('',(0.,0.,150.));
#696 = DIRECTION('',(-0.,1.,-0.));
#697 = DIRECTION('',(1.,0.,0.));
#698 = DEFINITIONAL_REPRESENTATION('',(#699),#707);
#699 = B_SPLINE_CURVE_WITH_KNOTS('',6,(#700,#701,#702,#703,#704,#705,
    #706),.UNSPECIFIED.,.F.,.F.,(7,7),(0.496883918778,0.743915359534),
  .PIECEWISE_BEZIER_KNOTS.);
#700 = CARTESIAN_POINT('',(-4.712388980385,-60.));
#701 = CARTESIAN_POINT('',(-4.833334753536,-60.));
#702 = CARTESIAN_POINT('',(-4.950579351744,-59.26836548569));
#703 = CARTESIAN_POINT('',(-5.069513867994,-57.89045441602));
#704 = CARTESIAN_POINT('',(-5.191076431151,-55.7862546092));
#705 = CARTESIAN_POINT('',(-5.314465299319,-53.05719681662));
#706 = CARTESIAN_POINT('',(-5.437642168449,-50.00000258658));
#707 = ( GEOMETRIC_REPRESENTATION_CONTEXT(2) 
PARAMETRIC_REPRESENTATION_CONTEXT() REPRESENTATION_CONTEXT('2D SPACE',''
  ) );
#708 = ORIENTED_EDGE('',*,*,#709,.T.);
#709 = EDGE_CURVE('',#635,#710,#712,.T.);
#710 = VERTEX_POINT('',#711);
#711 = CARTESIAN_POINT('',(33.166247903554,-50.,100.));
#712 = SURFACE_CURVE('',#713,(#717,#723),.PCURVE_S1.);
#713 = LINE('',#714,#715);
#714 = CARTESIAN_POINT('',(33.166247903554,-50.,95.));
#715 = VECTOR('',#716,1.);
#716 = DIRECTION('',(-0.,-0.,-1.));
#717 = PCURVE('',#32,#718);
#718 = DEFINITIONAL_REPRESENTATION('',(#719),#722);
#719 = B_SPLINE_CURVE_WITH_KNOTS('',1,(#720,#721),.UNSPECIFIED.,.F.,.F.,
  (2,2),(-17.58342613226,-5.),.PIECEWISE_BEZIER_KNOTS.);
#720 = CARTESIAN_POINT('',(-5.298074523842,-17.58342613226));
#721 = CARTESIAN_POINT('',(-5.298074523842,-5.));
#722 = ( GEOMETRIC_REPRESENTATION_CONTEXT(2) 
PARAMETRIC_REPRESENTATION_CONTEXT() REPRESENTATION_CONTEXT('2D SPACE',''
  ) );
#723 = PCURVE('',#724,#729);
#724 = PLANE('',#725);
#725 = AXIS2_PLACEMENT_3D('',#726,#727,#728);
#726 = CARTESIAN_POINT('',(-50.,-50.,100.));
#727 = DIRECTION('',(0.,1.,0.));
#728 = DIRECTION('',(0.,0.,1.));
#729 = DEFINITIONAL_REPRESENTATION('',(#730),#734);
#730 = LINE('',#731,#732);
#731 = CARTESIAN_POINT('',(-5.,83.166247903554));
#732 = VECTOR('',#733,1.);
#733 = DIRECTION('',(-1.,0.));
#734 = ( GEOMETRIC_REPRESENTATION_CONTEXT(2) 
PARAMETRIC_REPRESENTATION_CONTEXT() REPRESENTATION_CONTEXT('2D SPACE',''
  ) );
#735 = ORIENTED_EDGE('',*,*,#736,.F.);
#736 = EDGE_CURVE('',#737,#710,#739,.T.);
#737 = VERTEX_POINT('',#738);
#738 = CARTESIAN_POINT('',(50.,-33.16624790355,100.));
#739 = SURFACE_CURVE('',#740,(#745,#751),.PCURVE_S1.);
#740 = CIRCLE('',#741,60.);
#741 = AXIS2_PLACEMENT_3D('',#742,#743,#744);
#742 = CARTESIAN_POINT('',(0.,0.,100.));
#743 = DIRECTION('',(0.,0.,-1.));
#744 = DIRECTION('',(1.,0.,0.));
#745 = PCURVE('',#32,#746);
#746 = DEFINITIONAL_REPRESENTATION('',(#747),#750);
#747 = B_SPLINE_CURVE_WITH_KNOTS('',1,(#748,#749),.UNSPECIFIED.,.F.,.F.,
  (2,2),(0.585685543457,0.985110783338),.PIECEWISE_BEZIER_KNOTS.);
#748 = CARTESIAN_POINT('',(-5.697499763722,-5.));
#749 = CARTESIAN_POINT('',(-5.298074523842,-5.));
#750 = ( GEOMETRIC_REPRESENTATION_CONTEXT(2) 
PARAMETRIC_REPRESENTATION_CONTEXT() REPRESENTATION_CONTEXT('2D SPACE',''
  ) );
#751 = PCURVE('',#752,#757);
#752 = PLANE('',#753);
#753 = AXIS2_PLACEMENT_3D('',#754,#755,#756);
#754 = CARTESIAN_POINT('',(-50.,-50.,100.));
#755 = DIRECTION('',(0.,0.,1.));
#756 = DIRECTION('',(1.,0.,0.));
#757 = DEFINITIONAL_REPRESENTATION('',(#758),#766);
#758 = ( BOUNDED_CURVE() B_SPLINE_CURVE(2,(#759,#760,#761,#762,#763,#764
,#765),.UNSPECIFIED.,.T.,.F.) B_SPLINE_CURVE_WITH_KNOTS((1,2,2,2,2,1),(
    -2.094395102393,0.,2.094395102393,4.188790204786,6.28318530718,
8.377580409573),.UNSPECIFIED.) CURVE() GEOMETRIC_REPRESENTATION_ITEM() 
RATIONAL_B_SPLINE_CURVE((1.,0.5,1.,0.5,1.,0.5,1.)) REPRESENTATION_ITEM(
  '') );
#759 = CARTESIAN_POINT('',(110.,50.));
#760 = CARTESIAN_POINT('',(110.,-53.92304845413));
#761 = CARTESIAN_POINT('',(20.,-1.961524227066));
#762 = CARTESIAN_POINT('',(-70.,50.));
#763 = CARTESIAN_POINT('',(20.,101.96152422706));
#764 = CARTESIAN_POINT('',(110.,153.92304845413));
#765 = CARTESIAN_POINT('',(110.,50.));
#766 = ( GEOMETRIC_REPRESENTATION_CONTEXT(2) 
PARAMETRIC_REPRESENTATION_CONTEXT() REPRESENTATION_CONTEXT('2D SPACE',''
  ) );
#767 = ORIENTED_EDGE('',*,*,#768,.F.);
#768 = EDGE_CURVE('',#769,#737,#771,.T.);
#769 = VERTEX_POINT('',#770);
#770 = CARTESIAN_POINT('',(50.000000000001,-33.16624790355,150.));
#771 = SURFACE_CURVE('',#772,(#776,#782),.PCURVE_S1.);
#772 = LINE('',#773,#774);
#773 = CARTESIAN_POINT('',(50.,-33.16624790355,95.));
#774 = VECTOR('',#775,1.);
#775 = DIRECTION('',(-0.,-0.,-1.));
#776 = PCURVE('',#32,#777);
#777 = DEFINITIONAL_REPRESENTATION('',(#778),#781);
#778 = B_SPLINE_CURVE_WITH_KNOTS('',1,(#779,#780),.UNSPECIFIED.,.F.,.F.,
  (2,2),(-55.,-5.),.PIECEWISE_BEZIER_KNOTS.);
#779 = CARTESIAN_POINT('',(-5.697499763722,-55.));
#780 = CARTESIAN_POINT('',(-5.697499763722,-5.));
#781 = ( GEOMETRIC_REPRESENTATION_CONTEXT(2) 
PARAMETRIC_REPRESENTATION_CONTEXT() REPRESENTATION_CONTEXT('2D SPACE',''
  ) );
#782 = PCURVE('',#783,#788);
#783 = PLANE('',#784);
#784 = AXIS2_PLACEMENT_3D('',#785,#786,#787);
#785 = CARTESIAN_POINT('',(50.,-50.,100.));
#786 = DIRECTION('',(1.,0.,0.));
#787 = DIRECTION('',(0.,0.,1.));
#788 = DEFINITIONAL_REPRESENTATION('',(#789),#793);
#789 = LINE('',#790,#791);
#790 = CARTESIAN_POINT('',(-5.,-16.83375209644));
#791 = VECTOR('',#792,1.);
#792 = DIRECTION('',(-1.,0.));
#793 = ( GEOMETRIC_REPRESENTATION_CONTEXT(2) 
PARAMETRIC_REPRESENTATION_CONTEXT() REPRESENTATION_CONTEXT('2D SPACE',''
  ) );
#794 = ORIENTED_EDGE('',*,*,#795,.T.);
#795 = EDGE_CURVE('',#769,#24,#796,.T.);
#796 = SURFACE_CURVE('',#797,(#802,#808),.PCURVE_S1.);
#797 = CIRCLE('',#798,60.);
#798 = AXIS2_PLACEMENT_3D('',#799,#800,#801);
#799 = CARTESIAN_POINT('',(0.,0.,150.));
#800 = DIRECTION('',(0.,0.,1.));
#801 = DIRECTION('',(1.,0.,0.));
#802 = PCURVE('',#32,#803);
#803 = DEFINITIONAL_REPRESENTATION('',(#804),#807);
#804 = B_SPLINE_CURVE_WITH_KNOTS('',1,(#805,#806),.UNSPECIFIED.,.F.,.F.,
  (2,2),(5.697499763722,6.28318530718),.PIECEWISE_BEZIER_KNOTS.);
#805 = CARTESIAN_POINT('',(-5.697499763722,-55.));
#806 = CARTESIAN_POINT('',(-6.28318530718,-55.));
#807 = ( GEOMETRIC_REPRESENTATION_CONTEXT(2) 
PARAMETRIC_REPRESENTATION_CONTEXT() REPRESENTATION_CONTEXT('2D SPACE',''
  ) );
#808 = PCURVE('',#91,#809);
#809 = DEFINITIONAL_REPRESENTATION('',(#810),#814);
#810 = CIRCLE('',#811,60.);
#811 = AXIS2_PLACEMENT_2D('',#812,#813);
#812 = CARTESIAN_POINT('',(0.,-3.114834545176E-15));
#813 = DIRECTION('',(1.,0.));
#814 = ( GEOMETRIC_REPRESENTATION_CONTEXT(2) 
PARAMETRIC_REPRESENTATION_CONTEXT() REPRESENTATION_CONTEXT('2D SPACE',''
  ) );
#815 = ADVANCED_FACE('',(#816),#91,.T.);
#816 = FACE_BOUND('',#817,.T.);
#817 = EDGE_LOOP('',(#818,#819,#820,#842));
#818 = ORIENTED_EDGE('',*,*,#795,.T.);
#819 = ORIENTED_EDGE('',*,*,#75,.T.);
#820 = ORIENTED_EDGE('',*,*,#821,.F.);
#821 = EDGE_CURVE('',#822,#76,#824,.T.);
#822 = VERTEX_POINT('',#823);
#823 = CARTESIAN_POINT('',(50.,0.,150.));
#824 = SURFACE_CURVE('',#825,(#829,#836),.PCURVE_S1.);
#825 = LINE('',#826,#827);
#826 = CARTESIAN_POINT('',(50.,-50.,150.));
#827 = VECTOR('',#828,1.);
#828 = DIRECTION('',(0.,1.,0.));
#829 = PCURVE('',#91,#830);
#830 = DEFINITIONAL_REPRESENTATION('',(#831),#835);
#831 = LINE('',#832,#833);
#832 = CARTESIAN_POINT('',(50.,-50.));
#833 = VECTOR('',#834,1.);
#834 = DIRECTION('',(0.,1.));
#835 = ( GEOMETRIC_REPRESENTATION_CONTEXT(2) 
PARAMETRIC_REPRESENTATION_CONTEXT() REPRESENTATION_CONTEXT('2D SPACE',''
  ) );
#836 = PCURVE('',#328,#837);
#837 = DEFINITIONAL_REPRESENTATION('',(#838),#841);
#838 = B_SPLINE_CURVE_WITH_KNOTS('',1,(#839,#840),.UNSPECIFIED.,.F.,.F.,
  (2,2),(50.,83.166247903552),.PIECEWISE_BEZIER_KNOTS.);
#839 = CARTESIAN_POINT('',(0.,0.));
#840 = CARTESIAN_POINT('',(0.,-33.16624790355));
#841 = ( GEOMETRIC_REPRESENTATION_CONTEXT(2) 
PARAMETRIC_REPRESENTATION_CONTEXT() REPRESENTATION_CONTEXT('2D SPACE',''
  ) );
#842 = ORIENTED_EDGE('',*,*,#843,.F.);
#843 = EDGE_CURVE('',#769,#822,#844,.T.);
#844 = SURFACE_CURVE('',#845,(#849,#856),.PCURVE_S1.);
#845 = LINE('',#846,#847);
#846 = CARTESIAN_POINT('',(50.,-50.,150.));
#847 = VECTOR('',#848,1.);
#848 = DIRECTION('',(0.,1.,0.));
#849 = PCURVE('',#91,#850);
#850 = DEFINITIONAL_REPRESENTATION('',(#851),#855);
#851 = LINE('',#852,#853);
#852 = CARTESIAN_POINT('',(50.,-50.));
#853 = VECTOR('',#854,1.);
#854 = DIRECTION('',(0.,1.));
#855 = ( GEOMETRIC_REPRESENTATION_CONTEXT(2) 
PARAMETRIC_REPRESENTATION_CONTEXT() REPRESENTATION_CONTEXT('2D SPACE',''
  ) );
#856 = PCURVE('',#613,#857);
#857 = DEFINITIONAL_REPRESENTATION('',(#858),#861);
#858 = B_SPLINE_CURVE_WITH_KNOTS('',1,(#859,#860),.UNSPECIFIED.,.F.,.F.,
  (2,2),(16.833752096448,50.),.PIECEWISE_BEZIER_KNOTS.);
#859 = CARTESIAN_POINT('',(0.,-33.16624790355));
#860 = CARTESIAN_POINT('',(0.,0.));
#861 = ( GEOMETRIC_REPRESENTATION_CONTEXT(2) 
PARAMETRIC_REPRESENTATION_CONTEXT() REPRESENTATION_CONTEXT('2D SPACE',''
  ) );
#862 = ADVANCED_FACE('',(#863),#783,.T.);
#863 = FACE_BOUND('',#864,.T.);
#864 = EDGE_LOOP('',(#865,#887,#910,#931));
#865 = ORIENTED_EDGE('',*,*,#866,.F.);
#866 = EDGE_CURVE('',#867,#769,#869,.T.);
#867 = VERTEX_POINT('',#868);
#868 = CARTESIAN_POINT('',(50.,-50.,150.));
#869 = SURFACE_CURVE('',#870,(#874,#881),.PCURVE_S1.);
#870 = LINE('',#871,#872);
#871 = CARTESIAN_POINT('',(50.,-50.,150.));
#872 = VECTOR('',#873,1.);
#873 = DIRECTION('',(0.,1.,0.));
#874 = PCURVE('',#783,#875);
#875 = DEFINITIONAL_REPRESENTATION('',(#876),#880);
#876 = LINE('',#877,#878);
#877 = CARTESIAN_POINT('',(50.,0.));
#878 = VECTOR('',#879,1.);
#879 = DIRECTION('',(0.,-1.));
#880 = ( GEOMETRIC_REPRESENTATION_CONTEXT(2) 
PARAMETRIC_REPRESENTATION_CONTEXT() REPRESENTATION_CONTEXT('2D SPACE',''
  ) );
#881 = PCURVE('',#613,#882);
#882 = DEFINITIONAL_REPRESENTATION('',(#883),#886);
#883 = B_SPLINE_CURVE_WITH_KNOTS('',1,(#884,#885),.UNSPECIFIED.,.F.,.F.,
  (2,2),(0.,16.833752096448),.PIECEWISE_BEZIER_KNOTS.);
#884 = CARTESIAN_POINT('',(0.,-50.));
#885 = CARTESIAN_POINT('',(0.,-33.16624790355));
#886 = ( GEOMETRIC_REPRESENTATION_CONTEXT(2) 
PARAMETRIC_REPRESENTATION_CONTEXT() REPRESENTATION_CONTEXT('2D SPACE',''
  ) );
#887 = ORIENTED_EDGE('',*,*,#888,.F.);
#888 = EDGE_CURVE('',#889,#867,#891,.T.);
#889 = VERTEX_POINT('',#890);
#890 = CARTESIAN_POINT('',(50.,-50.,100.));
#891 = SURFACE_CURVE('',#892,(#896,#903),.PCURVE_S1.);
#892 = LINE('',#893,#894);
#893 = CARTESIAN_POINT('',(50.,-50.,100.));
#894 = VECTOR('',#895,1.);
#895 = DIRECTION('',(0.,0.,1.));
#896 = PCURVE('',#783,#897);
#897 = DEFINITIONAL_REPRESENTATION('',(#898),#902);
#898 = LINE('',#899,#900);
#899 = CARTESIAN_POINT('',(0.,0.));
#900 = VECTOR('',#901,1.);
#901 = DIRECTION('',(1.,0.));
#902 = ( GEOMETRIC_REPRESENTATION_CONTEXT(2) 
PARAMETRIC_REPRESENTATION_CONTEXT() REPRESENTATION_CONTEXT('2D SPACE',''
  ) );
#903 = PCURVE('',#724,#904);
#904 = DEFINITIONAL_REPRESENTATION('',(#905),#909);
#905 = LINE('',#906,#907);
#906 = CARTESIAN_POINT('',(0.,100.));
#907 = VECTOR('',#908,1.);
#908 = DIRECTION('',(1.,0.));
#909 = ( GEOMETRIC_REPRESENTATION_CONTEXT(2) 
PARAMETRIC_REPRESENTATION_CONTEXT() REPRESENTATION_CONTEXT('2D SPACE',''
  ) );
#910 = ORIENTED_EDGE('',*,*,#911,.T.);
#911 = EDGE_CURVE('',#889,#737,#912,.T.);
#912 = SURFACE_CURVE('',#913,(#917,#924),.PCURVE_S1.);
#913 = LINE('',#914,#915);
#914 = CARTESIAN_POINT('',(50.,-50.,100.));
#915 = VECTOR('',#916,1.);
#916 = DIRECTION('',(0.,1.,0.));
#917 = PCURVE('',#783,#918);
#918 = DEFINITIONAL_REPRESENTATION('',(#919),#923);
#919 = LINE('',#920,#921);
#920 = CARTESIAN_POINT('',(0.,0.));
#921 = VECTOR('',#922,1.);
#922 = DIRECTION('',(0.,-1.));
#923 = ( GEOMETRIC_REPRESENTATION_CONTEXT(2) 
PARAMETRIC_REPRESENTATION_CONTEXT() REPRESENTATION_CONTEXT('2D SPACE',''
  ) );
#924 = PCURVE('',#752,#925);
#925 = DEFINITIONAL_REPRESENTATION('',(#926),#930);
#926 = LINE('',#927,#928);
#927 = CARTESIAN_POINT('',(100.,0.));
#928 = VECTOR('',#929,1.);
#929 = DIRECTION('',(0.,1.));
#930 = ( GEOMETRIC_REPRESENTATION_CONTEXT(2) 
PARAMETRIC_REPRESENTATION_CONTEXT() REPRESENTATION_CONTEXT('2D SPACE',''
  ) );
#931 = ORIENTED_EDGE('',*,*,#768,.F.);
#932 = ADVANCED_FACE('',(#933),#752,.F.);
#933 = FACE_BOUND('',#934,.F.);
#934 = EDGE_LOOP('',(#935,#936,#957));
#935 = ORIENTED_EDGE('',*,*,#736,.T.);
#936 = ORIENTED_EDGE('',*,*,#937,.T.);
#937 = EDGE_CURVE('',#710,#889,#938,.T.);
#938 = SURFACE_CURVE('',#939,(#943,#950),.PCURVE_S1.);
#939 = LINE('',#940,#941);
#940 = CARTESIAN_POINT('',(-50.,-50.,100.));
#941 = VECTOR('',#942,1.);
#942 = DIRECTION('',(1.,0.,0.));
#943 = PCURVE('',#752,#944);
#944 = DEFINITIONAL_REPRESENTATION('',(#945),#949);
#945 = LINE('',#946,#947);
#946 = CARTESIAN_POINT('',(0.,0.));
#947 = VECTOR('',#948,1.);
#948 = DIRECTION('',(1.,0.));
#949 = ( GEOMETRIC_REPRESENTATION_CONTEXT(2) 
PARAMETRIC_REPRESENTATION_CONTEXT() REPRESENTATION_CONTEXT('2D SPACE',''
  ) );
#950 = PCURVE('',#724,#951);
#951 = DEFINITIONAL_REPRESENTATION('',(#952),#956);
#952 = LINE('',#953,#954);
#953 = CARTESIAN_POINT('',(0.,0.));
#954 = VECTOR('',#955,1.);
#955 = DIRECTION('',(0.,1.));
#956 = ( GEOMETRIC_REPRESENTATION_CONTEXT(2) 
PARAMETRIC_REPRESENTATION_CONTEXT() REPRESENTATION_CONTEXT('2D SPACE',''
  ) );
#957 = ORIENTED_EDGE('',*,*,#911,.T.);
#958 = ADVANCED_FACE('',(#959),#724,.F.);
#959 = FACE_BOUND('',#960,.F.);
#960 = EDGE_LOOP('',(#961,#962,#963,#984));
#961 = ORIENTED_EDGE('',*,*,#937,.F.);
#962 = ORIENTED_EDGE('',*,*,#709,.F.);
#963 = ORIENTED_EDGE('',*,*,#964,.F.);
#964 = EDGE_CURVE('',#867,#635,#965,.T.);
#965 = SURFACE_CURVE('',#966,(#971,#978),.PCURVE_S1.);
#966 = CIRCLE('',#967,50.);
#967 = AXIS2_PLACEMENT_3D('',#968,#969,#970);
#968 = CARTESIAN_POINT('',(0.,-50.,150.));
#969 = DIRECTION('',(-0.,1.,0.));
#970 = DIRECTION('',(1.,0.,0.));
#971 = PCURVE('',#724,#972);
#972 = DEFINITIONAL_REPRESENTATION('',(#973),#977);
#973 = CIRCLE('',#974,50.);
#974 = AXIS2_PLACEMENT_2D('',#975,#976);
#975 = CARTESIAN_POINT('',(50.,50.));
#976 = DIRECTION('',(0.,1.));
#977 = ( GEOMETRIC_REPRESENTATION_CONTEXT(2) 
PARAMETRIC_REPRESENTATION_CONTEXT() REPRESENTATION_CONTEXT('2D SPACE',''
  ) );
#978 = PCURVE('',#693,#979);
#979 = DEFINITIONAL_REPRESENTATION('',(#980),#983);
#980 = B_SPLINE_CURVE_WITH_KNOTS('',1,(#981,#982),.UNSPECIFIED.,.F.,.F.,
  (2,2),(0.,0.845543104595),.PIECEWISE_BEZIER_KNOTS.);
#981 = CARTESIAN_POINT('',(-6.28318530718,-50.));
#982 = CARTESIAN_POINT('',(-5.437642202585,-50.));
#983 = ( GEOMETRIC_REPRESENTATION_CONTEXT(2) 
PARAMETRIC_REPRESENTATION_CONTEXT() REPRESENTATION_CONTEXT('2D SPACE',''
  ) );
#984 = ORIENTED_EDGE('',*,*,#888,.F.);
#985 = ADVANCED_FACE('',(#986),#693,.T.);
#986 = FACE_BOUND('',#987,.F.);
#987 = EDGE_LOOP('',(#988,#1009,#1010,#1011));
#988 = ORIENTED_EDGE('',*,*,#989,.F.);
#989 = EDGE_CURVE('',#867,#990,#992,.T.);
#990 = VERTEX_POINT('',#991);
#991 = CARTESIAN_POINT('',(50.,-60.,150.));
#992 = SURFACE_CURVE('',#993,(#997,#1003),.PCURVE_S1.);
#993 = LINE('',#994,#995);
#994 = CARTESIAN_POINT('',(50.,0.,150.));
#995 = VECTOR('',#996,1.);
#996 = DIRECTION('',(0.,-1.,0.));
#997 = PCURVE('',#693,#998);
#998 = DEFINITIONAL_REPRESENTATION('',(#999),#1002);
#999 = B_SPLINE_CURVE_WITH_KNOTS('',1,(#1000,#1001),.UNSPECIFIED.,.F.,
  .F.,(2,2),(50.,60.),.PIECEWISE_BEZIER_KNOTS.);
#1000 = CARTESIAN_POINT('',(-6.28318530718,-50.));
#1001 = CARTESIAN_POINT('',(-6.28318530718,-60.));
#1002 = ( GEOMETRIC_REPRESENTATION_CONTEXT(2) 
PARAMETRIC_REPRESENTATION_CONTEXT() REPRESENTATION_CONTEXT('2D SPACE',''
  ) );
#1003 = PCURVE('',#613,#1004);
#1004 = DEFINITIONAL_REPRESENTATION('',(#1005),#1008);
#1005 = B_SPLINE_CURVE_WITH_KNOTS('',1,(#1006,#1007),.UNSPECIFIED.,.F.,
  .F.,(2,2),(50.,60.),.PIECEWISE_BEZIER_KNOTS.);
#1006 = CARTESIAN_POINT('',(0.,-50.));
#1007 = CARTESIAN_POINT('',(0.,-60.));
#1008 = ( GEOMETRIC_REPRESENTATION_CONTEXT(2) 
PARAMETRIC_REPRESENTATION_CONTEXT() REPRESENTATION_CONTEXT('2D SPACE',''
  ) );
#1009 = ORIENTED_EDGE('',*,*,#964,.T.);
#1010 = ORIENTED_EDGE('',*,*,#634,.F.);
#1011 = ORIENTED_EDGE('',*,*,#1012,.T.);
#1012 = EDGE_CURVE('',#550,#990,#1013,.T.);
#1013 = SURFACE_CURVE('',#1014,(#1019,#1025),.PCURVE_S1.);
#1014 = CIRCLE('',#1015,50.);
#1015 = AXIS2_PLACEMENT_3D('',#1016,#1017,#1018);
#1016 = CARTESIAN_POINT('',(0.,-60.,150.));
#1017 = DIRECTION('',(0.,-1.,0.));
#1018 = DIRECTION('',(1.,0.,0.));
#1019 = PCURVE('',#693,#1020);
#1020 = DEFINITIONAL_REPRESENTATION('',(#1021),#1024);
#1021 = B_SPLINE_CURVE_WITH_KNOTS('',1,(#1022,#1023),.UNSPECIFIED.,.F.,
  .F.,(2,2),(4.712388980385,6.28318530718),.PIECEWISE_BEZIER_KNOTS.);
#1022 = CARTESIAN_POINT('',(-4.712388980385,-60.));
#1023 = CARTESIAN_POINT('',(-6.28318530718,-60.));
#1024 = ( GEOMETRIC_REPRESENTATION_CONTEXT(2) 
PARAMETRIC_REPRESENTATION_CONTEXT() REPRESENTATION_CONTEXT('2D SPACE',''
  ) );
#1025 = PCURVE('',#1026,#1031);
#1026 = PLANE('',#1027);
#1027 = AXIS2_PLACEMENT_3D('',#1028,#1029,#1030);
#1028 = CARTESIAN_POINT('',(-1.669238443041E-15,-60.,150.));
#1029 = DIRECTION('',(-0.,-1.,-0.));
#1030 = DIRECTION('',(0.,0.,-1.));
#1031 = DEFINITIONAL_REPRESENTATION('',(#1032),#1036);
#1032 = CIRCLE('',#1033,50.);
#1033 = AXIS2_PLACEMENT_2D('',#1034,#1035);
#1034 = CARTESIAN_POINT('',(0.,1.669238443041E-15));
#1035 = DIRECTION('',(0.,1.));
#1036 = ( GEOMETRIC_REPRESENTATION_CONTEXT(2) 
PARAMETRIC_REPRESENTATION_CONTEXT() REPRESENTATION_CONTEXT('2D SPACE',''
  ) );
#1037 = ADVANCED_FACE('',(#1038),#613,.T.);
#1038 = FACE_BOUND('',#1039,.F.);
#1039 = EDGE_LOOP('',(#1040,#1041,#1042,#1043,#1064,#1065,#1088,#1108,
    #1130));
#1040 = ORIENTED_EDGE('',*,*,#843,.F.);
#1041 = ORIENTED_EDGE('',*,*,#866,.F.);
#1042 = ORIENTED_EDGE('',*,*,#989,.T.);
#1043 = ORIENTED_EDGE('',*,*,#1044,.T.);
#1044 = EDGE_CURVE('',#990,#550,#1045,.T.);
#1045 = SURFACE_CURVE('',#1046,(#1051,#1057),.PCURVE_S1.);
#1046 = CIRCLE('',#1047,50.);
#1047 = AXIS2_PLACEMENT_3D('',#1048,#1049,#1050);
#1048 = CARTESIAN_POINT('',(0.,-60.,150.));
#1049 = DIRECTION('',(0.,-1.,0.));
#1050 = DIRECTION('',(1.,0.,0.));
#1051 = PCURVE('',#613,#1052);
#1052 = DEFINITIONAL_REPRESENTATION('',(#1053),#1056);
#1053 = B_SPLINE_CURVE_WITH_KNOTS('',1,(#1054,#1055),.UNSPECIFIED.,.F.,
  .F.,(2,2),(0.,4.712388980385),.PIECEWISE_BEZIER_KNOTS.);
#1054 = CARTESIAN_POINT('',(0.,-60.));
#1055 = CARTESIAN_POINT('',(-4.712388980385,-60.));
#1056 = ( GEOMETRIC_REPRESENTATION_CONTEXT(2) 
PARAMETRIC_REPRESENTATION_CONTEXT() REPRESENTATION_CONTEXT('2D SPACE',''
  ) );
#1057 = PCURVE('',#1026,#1058);
#1058 = DEFINITIONAL_REPRESENTATION('',(#1059),#1063);
#1059 = CIRCLE('',#1060,50.);
#1060 = AXIS2_PLACEMENT_2D('',#1061,#1062);
#1061 = CARTESIAN_POINT('',(0.,1.669238443041E-15));
#1062 = DIRECTION('',(0.,1.));
#1063 = ( GEOMETRIC_REPRESENTATION_CONTEXT(2) 
PARAMETRIC_REPRESENTATION_CONTEXT() REPRESENTATION_CONTEXT('2D SPACE',''
  ) );
#1064 = ORIENTED_EDGE('',*,*,#549,.F.);
#1065 = ORIENTED_EDGE('',*,*,#1066,.T.);
#1066 = EDGE_CURVE('',#523,#1067,#1069,.T.);
#1067 = VERTEX_POINT('',#1068);
#1068 = CARTESIAN_POINT('',(-50.,-50.,150.));
#1069 = SURFACE_CURVE('',#1070,(#1075,#1081),.PCURVE_S1.);
#1070 = CIRCLE('',#1071,50.);
#1071 = AXIS2_PLACEMENT_3D('',#1072,#1073,#1074);
#1072 = CARTESIAN_POINT('',(0.,-50.,150.));
#1073 = DIRECTION('',(-0.,1.,0.));
#1074 = DIRECTION('',(1.,0.,0.));
#1075 = PCURVE('',#613,#1076);
#1076 = DEFINITIONAL_REPRESENTATION('',(#1077),#1080);
#1077 = B_SPLINE_CURVE_WITH_KNOTS('',1,(#1078,#1079),.UNSPECIFIED.,.F.,
  .F.,(2,2),(2.296049548995,3.14159265359),.PIECEWISE_BEZIER_KNOTS.);
#1078 = CARTESIAN_POINT('',(-3.987135758185,-50.));
#1079 = CARTESIAN_POINT('',(-3.14159265359,-50.));
#1080 = ( GEOMETRIC_REPRESENTATION_CONTEXT(2) 
PARAMETRIC_REPRESENTATION_CONTEXT() REPRESENTATION_CONTEXT('2D SPACE',''
  ) );
#1081 = PCURVE('',#537,#1082);
#1082 = DEFINITIONAL_REPRESENTATION('',(#1083),#1087);
#1083 = CIRCLE('',#1084,50.);
#1084 = AXIS2_PLACEMENT_2D('',#1085,#1086);
#1085 = CARTESIAN_POINT('',(50.,50.));
#1086 = DIRECTION('',(0.,1.));
#1087 = ( GEOMETRIC_REPRESENTATION_CONTEXT(2) 
PARAMETRIC_REPRESENTATION_CONTEXT() REPRESENTATION_CONTEXT('2D SPACE',''
  ) );
#1088 = ORIENTED_EDGE('',*,*,#1089,.T.);
#1089 = EDGE_CURVE('',#1067,#436,#1090,.T.);
#1090 = SURFACE_CURVE('',#1091,(#1095,#1101),.PCURVE_S1.);
#1091 = LINE('',#1092,#1093);
#1092 = CARTESIAN_POINT('',(-50.,-50.,150.));
#1093 = VECTOR('',#1094,1.);
#1094 = DIRECTION('',(0.,1.,0.));
#1095 = PCURVE('',#613,#1096);
#1096 = DEFINITIONAL_REPRESENTATION('',(#1097),#1100);
#1097 = B_SPLINE_CURVE_WITH_KNOTS('',1,(#1098,#1099),.UNSPECIFIED.,.F.,
  .F.,(2,2),(0.,16.833752096446),.PIECEWISE_BEZIER_KNOTS.);
#1098 = CARTESIAN_POINT('',(-3.14159265359,-50.));
#1099 = CARTESIAN_POINT('',(-3.14159265359,-33.16624790355));
#1100 = ( GEOMETRIC_REPRESENTATION_CONTEXT(2) 
PARAMETRIC_REPRESENTATION_CONTEXT() REPRESENTATION_CONTEXT('2D SPACE',''
  ) );
#1101 = PCURVE('',#478,#1102);
#1102 = DEFINITIONAL_REPRESENTATION('',(#1103),#1107);
#1103 = LINE('',#1104,#1105);
#1104 = CARTESIAN_POINT('',(50.,0.));
#1105 = VECTOR('',#1106,1.);
#1106 = DIRECTION('',(0.,-1.));
#1107 = ( GEOMETRIC_REPRESENTATION_CONTEXT(2) 
PARAMETRIC_REPRESENTATION_CONTEXT() REPRESENTATION_CONTEXT('2D SPACE',''
  ) );
#1108 = ORIENTED_EDGE('',*,*,#1109,.T.);
#1109 = EDGE_CURVE('',#436,#1110,#1112,.T.);
#1110 = VERTEX_POINT('',#1111);
#1111 = CARTESIAN_POINT('',(-50.,0.,150.));
#1112 = SURFACE_CURVE('',#1113,(#1117,#1123),.PCURVE_S1.);
#1113 = LINE('',#1114,#1115);
#1114 = CARTESIAN_POINT('',(-50.,-50.,150.));
#1115 = VECTOR('',#1116,1.);
#1116 = DIRECTION('',(0.,1.,0.));
#1117 = PCURVE('',#613,#1118);
#1118 = DEFINITIONAL_REPRESENTATION('',(#1119),#1122);
#1119 = B_SPLINE_CURVE_WITH_KNOTS('',1,(#1120,#1121),.UNSPECIFIED.,.F.,
  .F.,(2,2),(16.833752096446,50.),.PIECEWISE_BEZIER_KNOTS.);
#1120 = CARTESIAN_POINT('',(-3.14159265359,-33.16624790355));
#1121 = CARTESIAN_POINT('',(-3.14159265359,0.));
#1122 = ( GEOMETRIC_REPRESENTATION_CONTEXT(2) 
PARAMETRIC_REPRESENTATION_CONTEXT() REPRESENTATION_CONTEXT('2D SPACE',''
  ) );
#1123 = PCURVE('',#451,#1124);
#1124 = DEFINITIONAL_REPRESENTATION('',(#1125),#1129);
#1125 = LINE('',#1126,#1127);
#1126 = CARTESIAN_POINT('',(-50.,-50.));
#1127 = VECTOR('',#1128,1.);
#1128 = DIRECTION('',(0.,1.));
#1129 = ( GEOMETRIC_REPRESENTATION_CONTEXT(2) 
PARAMETRIC_REPRESENTATION_CONTEXT() REPRESENTATION_CONTEXT('2D SPACE',''
  ) );
#1130 = ORIENTED_EDGE('',*,*,#1131,.F.);
#1131 = EDGE_CURVE('',#822,#1110,#1132,.T.);
#1132 = SURFACE_CURVE('',#1133,(#1138,#1144),.PCURVE_S1.);
#1133 = CIRCLE('',#1134,50.);
#1134 = AXIS2_PLACEMENT_3D('',#1135,#1136,#1137);
#1135 = CARTESIAN_POINT('',(0.,0.,150.));
#1136 = DIRECTION('',(0.,-1.,0.));
#1137 = DIRECTION('',(1.,0.,0.));
#1138 = PCURVE('',#613,#1139);
#1139 = DEFINITIONAL_REPRESENTATION('',(#1140),#1143);
#1140 = B_SPLINE_CURVE_WITH_KNOTS('',1,(#1141,#1142),.UNSPECIFIED.,.F.,
  .F.,(2,2),(0.,3.14159265359),.PIECEWISE_BEZIER_KNOTS.);
#1141 = CARTESIAN_POINT('',(0.,0.));
#1142 = CARTESIAN_POINT('',(-3.14159265359,0.));
#1143 = ( GEOMETRIC_REPRESENTATION_CONTEXT(2) 
PARAMETRIC_REPRESENTATION_CONTEXT() REPRESENTATION_CONTEXT('2D SPACE',''
  ) );
#1144 = PCURVE('',#328,#1145);
#1145 = DEFINITIONAL_REPRESENTATION('',(#1146),#1149);
#1146 = B_SPLINE_CURVE_WITH_KNOTS('',1,(#1147,#1148),.UNSPECIFIED.,.F.,
  .F.,(2,2),(0.,3.14159265359),.PIECEWISE_BEZIER_KNOTS.);
#1147 = CARTESIAN_POINT('',(0.,0.));
#1148 = CARTESIAN_POINT('',(3.14159265359,0.));
#1149 = ( GEOMETRIC_REPRESENTATION_CONTEXT(2) 
PARAMETRIC_REPRESENTATION_CONTEXT() REPRESENTATION_CONTEXT('2D SPACE',''
  ) );
#1150 = ADVANCED_FACE('',(#1151),#537,.F.);
#1151 = FACE_BOUND('',#1152,.F.);
#1152 = EDGE_LOOP('',(#1153,#1176,#1197,#1198));
#1153 = ORIENTED_EDGE('',*,*,#1154,.F.);
#1154 = EDGE_CURVE('',#1155,#491,#1157,.T.);
#1155 = VERTEX_POINT('',#1156);
#1156 = CARTESIAN_POINT('',(-50.,-50.,100.));
#1157 = SURFACE_CURVE('',#1158,(#1162,#1169),.PCURVE_S1.);
#1158 = LINE('',#1159,#1160);
#1159 = CARTESIAN_POINT('',(-50.,-50.,100.));
#1160 = VECTOR('',#1161,1.);
#1161 = DIRECTION('',(1.,0.,0.));
#1162 = PCURVE('',#537,#1163);
#1163 = DEFINITIONAL_REPRESENTATION('',(#1164),#1168);
#1164 = LINE('',#1165,#1166);
#1165 = CARTESIAN_POINT('',(0.,0.));
#1166 = VECTOR('',#1167,1.);
#1167 = DIRECTION('',(0.,1.));
#1168 = ( GEOMETRIC_REPRESENTATION_CONTEXT(2) 
PARAMETRIC_REPRESENTATION_CONTEXT() REPRESENTATION_CONTEXT('2D SPACE',''
  ) );
#1169 = PCURVE('',#506,#1170);
#1170 = DEFINITIONAL_REPRESENTATION('',(#1171),#1175);
#1171 = LINE('',#1172,#1173);
#1172 = CARTESIAN_POINT('',(0.,0.));
#1173 = VECTOR('',#1174,1.);
#1174 = DIRECTION('',(1.,0.));
#1175 = ( GEOMETRIC_REPRESENTATION_CONTEXT(2) 
PARAMETRIC_REPRESENTATION_CONTEXT() REPRESENTATION_CONTEXT('2D SPACE',''
  ) );
#1176 = ORIENTED_EDGE('',*,*,#1177,.T.);
#1177 = EDGE_CURVE('',#1155,#1067,#1178,.T.);
#1178 = SURFACE_CURVE('',#1179,(#1183,#1190),.PCURVE_S1.);
#1179 = LINE('',#1180,#1181);
#1180 = CARTESIAN_POINT('',(-50.,-50.,100.));
#1181 = VECTOR('',#1182,1.);
#1182 = DIRECTION('',(0.,0.,1.));
#1183 = PCURVE('',#537,#1184);
#1184 = DEFINITIONAL_REPRESENTATION('',(#1185),#1189);
#1185 = LINE('',#1186,#1187);
#1186 = CARTESIAN_POINT('',(0.,0.));
#1187 = VECTOR('',#1188,1.);
#1188 = DIRECTION('',(1.,0.));
#1189 = ( GEOMETRIC_REPRESENTATION_CONTEXT(2) 
PARAMETRIC_REPRESENTATION_CONTEXT() REPRESENTATION_CONTEXT('2D SPACE',''
  ) );
#1190 = PCURVE('',#478,#1191);
#1191 = DEFINITIONAL_REPRESENTATION('',(#1192),#1196);
#1192 = LINE('',#1193,#1194);
#1193 = CARTESIAN_POINT('',(0.,0.));
#1194 = VECTOR('',#1195,1.);
#1195 = DIRECTION('',(1.,0.));
#1196 = ( GEOMETRIC_REPRESENTATION_CONTEXT(2) 
PARAMETRIC_REPRESENTATION_CONTEXT() REPRESENTATION_CONTEXT('2D SPACE',''
  ) );
#1197 = ORIENTED_EDGE('',*,*,#1066,.F.);
#1198 = ORIENTED_EDGE('',*,*,#522,.T.);
#1199 = ADVANCED_FACE('',(#1200),#506,.F.);
#1200 = FACE_BOUND('',#1201,.F.);
#1201 = EDGE_LOOP('',(#1202,#1223,#1224));
#1202 = ORIENTED_EDGE('',*,*,#1203,.F.);
#1203 = EDGE_CURVE('',#1155,#464,#1204,.T.);
#1204 = SURFACE_CURVE('',#1205,(#1209,#1216),.PCURVE_S1.);
#1205 = LINE('',#1206,#1207);
#1206 = CARTESIAN_POINT('',(-50.,-50.,100.));
#1207 = VECTOR('',#1208,1.);
#1208 = DIRECTION('',(0.,1.,0.));
#1209 = PCURVE('',#506,#1210);
#1210 = DEFINITIONAL_REPRESENTATION('',(#1211),#1215);
#1211 = LINE('',#1212,#1213);
#1212 = CARTESIAN_POINT('',(0.,0.));
#1213 = VECTOR('',#1214,1.);
#1214 = DIRECTION('',(0.,1.));
#1215 = ( GEOMETRIC_REPRESENTATION_CONTEXT(2) 
PARAMETRIC_REPRESENTATION_CONTEXT() REPRESENTATION_CONTEXT('2D SPACE',''
  ) );
#1216 = PCURVE('',#478,#1217);
#1217 = DEFINITIONAL_REPRESENTATION('',(#1218),#1222);
#1218 = LINE('',#1219,#1220);
#1219 = CARTESIAN_POINT('',(0.,0.));
#1220 = VECTOR('',#1221,1.);
#1221 = DIRECTION('',(0.,-1.));
#1222 = ( GEOMETRIC_REPRESENTATION_CONTEXT(2) 
PARAMETRIC_REPRESENTATION_CONTEXT() REPRESENTATION_CONTEXT('2D SPACE',''
  ) );
#1223 = ORIENTED_EDGE('',*,*,#1154,.T.);
#1224 = ORIENTED_EDGE('',*,*,#490,.T.);
#1225 = ADVANCED_FACE('',(#1226),#478,.F.);
#1226 = FACE_BOUND('',#1227,.F.);
#1227 = EDGE_LOOP('',(#1228,#1229,#1230,#1231));
#1228 = ORIENTED_EDGE('',*,*,#1089,.F.);
#1229 = ORIENTED_EDGE('',*,*,#1177,.F.);
#1230 = ORIENTED_EDGE('',*,*,#1203,.T.);
#1231 = ORIENTED_EDGE('',*,*,#463,.F.);
#1232 = ADVANCED_FACE('',(#1233),#451,.T.);
#1233 = FACE_BOUND('',#1234,.T.);
#1234 = EDGE_LOOP('',(#1235,#1236,#1256));
#1235 = ORIENTED_EDGE('',*,*,#1109,.T.);
#1236 = ORIENTED_EDGE('',*,*,#1237,.T.);
#1237 = EDGE_CURVE('',#1110,#409,#1238,.T.);
#1238 = SURFACE_CURVE('',#1239,(#1243,#1250),.PCURVE_S1.);
#1239 = LINE('',#1240,#1241);
#1240 = CARTESIAN_POINT('',(-50.,-50.,150.));
#1241 = VECTOR('',#1242,1.);
#1242 = DIRECTION('',(0.,1.,0.));
#1243 = PCURVE('',#451,#1244);
#1244 = DEFINITIONAL_REPRESENTATION('',(#1245),#1249);
#1245 = LINE('',#1246,#1247);
#1246 = CARTESIAN_POINT('',(-50.,-50.));
#1247 = VECTOR('',#1248,1.);
#1248 = DIRECTION('',(0.,1.));
#1249 = ( GEOMETRIC_REPRESENTATION_CONTEXT(2) 
PARAMETRIC_REPRESENTATION_CONTEXT() REPRESENTATION_CONTEXT('2D SPACE',''
  ) );
#1250 = PCURVE('',#328,#1251);
#1251 = DEFINITIONAL_REPRESENTATION('',(#1252),#1255);
#1252 = B_SPLINE_CURVE_WITH_KNOTS('',1,(#1253,#1254),.UNSPECIFIED.,.F.,
  .F.,(2,2),(50.,83.166247903554),.PIECEWISE_BEZIER_KNOTS.);
#1253 = CARTESIAN_POINT('',(3.14159265359,0.));
#1254 = CARTESIAN_POINT('',(3.14159265359,-33.16624790355));
#1255 = ( GEOMETRIC_REPRESENTATION_CONTEXT(2) 
PARAMETRIC_REPRESENTATION_CONTEXT() REPRESENTATION_CONTEXT('2D SPACE',''
  ) );
#1256 = ORIENTED_EDGE('',*,*,#435,.T.);
#1257 = ADVANCED_FACE('',(#1258),#423,.F.);
#1258 = FACE_BOUND('',#1259,.F.);
#1259 = EDGE_LOOP('',(#1260,#1282,#1283,#1306));
#1260 = ORIENTED_EDGE('',*,*,#1261,.F.);
#1261 = EDGE_CURVE('',#409,#1262,#1264,.T.);
#1262 = VERTEX_POINT('',#1263);
#1263 = CARTESIAN_POINT('',(-50.,50.,150.));
#1264 = SURFACE_CURVE('',#1265,(#1269,#1276),.PCURVE_S1.);
#1265 = LINE('',#1266,#1267);
#1266 = CARTESIAN_POINT('',(-50.,-50.,150.));
#1267 = VECTOR('',#1268,1.);
#1268 = DIRECTION('',(0.,1.,0.));
#1269 = PCURVE('',#423,#1270);
#1270 = DEFINITIONAL_REPRESENTATION('',(#1271),#1275);
#1271 = LINE('',#1272,#1273);
#1272 = CARTESIAN_POINT('',(50.,0.));
#1273 = VECTOR('',#1274,1.);
#1274 = DIRECTION('',(0.,-1.));
#1275 = ( GEOMETRIC_REPRESENTATION_CONTEXT(2) 
PARAMETRIC_REPRESENTATION_CONTEXT() REPRESENTATION_CONTEXT('2D SPACE',''
  ) );
#1276 = PCURVE('',#328,#1277);
#1277 = DEFINITIONAL_REPRESENTATION('',(#1278),#1281);
#1278 = B_SPLINE_CURVE_WITH_KNOTS('',1,(#1279,#1280),.UNSPECIFIED.,.F.,
  .F.,(2,2),(83.166247903554,100.),.PIECEWISE_BEZIER_KNOTS.);
#1279 = CARTESIAN_POINT('',(3.14159265359,-33.16624790355));
#1280 = CARTESIAN_POINT('',(3.14159265359,-50.));
#1281 = ( GEOMETRIC_REPRESENTATION_CONTEXT(2) 
PARAMETRIC_REPRESENTATION_CONTEXT() REPRESENTATION_CONTEXT('2D SPACE',''
  ) );
#1282 = ORIENTED_EDGE('',*,*,#408,.T.);
#1283 = ORIENTED_EDGE('',*,*,#1284,.T.);
#1284 = EDGE_CURVE('',#377,#1285,#1287,.T.);
#1285 = VERTEX_POINT('',#1286);
#1286 = CARTESIAN_POINT('',(-50.,50.,100.));
#1287 = SURFACE_CURVE('',#1288,(#1292,#1299),.PCURVE_S1.);
#1288 = LINE('',#1289,#1290);
#1289 = CARTESIAN_POINT('',(-50.,-50.,100.));
#1290 = VECTOR('',#1291,1.);
#1291 = DIRECTION('',(0.,1.,0.));
#1292 = PCURVE('',#423,#1293);
#1293 = DEFINITIONAL_REPRESENTATION('',(#1294),#1298);
#1294 = LINE('',#1295,#1296);
#1295 = CARTESIAN_POINT('',(0.,0.));
#1296 = VECTOR('',#1297,1.);
#1297 = DIRECTION('',(0.,-1.));
#1298 = ( GEOMETRIC_REPRESENTATION_CONTEXT(2) 
PARAMETRIC_REPRESENTATION_CONTEXT() REPRESENTATION_CONTEXT('2D SPACE',''
  ) );
#1299 = PCURVE('',#392,#1300);
#1300 = DEFINITIONAL_REPRESENTATION('',(#1301),#1305);
#1301 = LINE('',#1302,#1303);
#1302 = CARTESIAN_POINT('',(0.,0.));
#1303 = VECTOR('',#1304,1.);
#1304 = DIRECTION('',(0.,1.));
#1305 = ( GEOMETRIC_REPRESENTATION_CONTEXT(2) 
PARAMETRIC_REPRESENTATION_CONTEXT() REPRESENTATION_CONTEXT('2D SPACE',''
  ) );
#1306 = ORIENTED_EDGE('',*,*,#1307,.T.);
#1307 = EDGE_CURVE('',#1285,#1262,#1308,.T.);
#1308 = SURFACE_CURVE('',#1309,(#1313,#1320),.PCURVE_S1.);
#1309 = LINE('',#1310,#1311);
#1310 = CARTESIAN_POINT('',(-50.,50.,100.));
#1311 = VECTOR('',#1312,1.);
#1312 = DIRECTION('',(0.,0.,1.));
#1313 = PCURVE('',#423,#1314);
#1314 = DEFINITIONAL_REPRESENTATION('',(#1315),#1319);
#1315 = LINE('',#1316,#1317);
#1316 = CARTESIAN_POINT('',(0.,-100.));
#1317 = VECTOR('',#1318,1.);
#1318 = DIRECTION('',(1.,0.));
#1319 = ( GEOMETRIC_REPRESENTATION_CONTEXT(2) 
PARAMETRIC_REPRESENTATION_CONTEXT() REPRESENTATION_CONTEXT('2D SPACE',''
  ) );
#1320 = PCURVE('',#364,#1321);
#1321 = DEFINITIONAL_REPRESENTATION('',(#1322),#1326);
#1322 = LINE('',#1323,#1324);
#1323 = CARTESIAN_POINT('',(0.,0.));
#1324 = VECTOR('',#1325,1.);
#1325 = DIRECTION('',(1.,0.));
#1326 = ( GEOMETRIC_REPRESENTATION_CONTEXT(2) 
PARAMETRIC_REPRESENTATION_CONTEXT() REPRESENTATION_CONTEXT('2D SPACE',''
  ) );
#1327 = ADVANCED_FACE('',(#1328),#392,.F.);
#1328 = FACE_BOUND('',#1329,.F.);
#1329 = EDGE_LOOP('',(#1330,#1331,#1332));
#1330 = ORIENTED_EDGE('',*,*,#1284,.F.);
#1331 = ORIENTED_EDGE('',*,*,#376,.T.);
#1332 = ORIENTED_EDGE('',*,*,#1333,.F.);
#1333 = EDGE_CURVE('',#1285,#350,#1334,.T.);
#1334 = SURFACE_CURVE('',#1335,(#1339,#1346),.PCURVE_S1.);
#1335 = LINE('',#1336,#1337);
#1336 = CARTESIAN_POINT('',(-50.,50.,100.));
#1337 = VECTOR('',#1338,1.);
#1338 = DIRECTION('',(1.,0.,0.));
#1339 = PCURVE('',#392,#1340);
#1340 = DEFINITIONAL_REPRESENTATION('',(#1341),#1345);
#1341 = LINE('',#1342,#1343);
#1342 = CARTESIAN_POINT('',(0.,100.));
#1343 = VECTOR('',#1344,1.);
#1344 = DIRECTION('',(1.,0.));
#1345 = ( GEOMETRIC_REPRESENTATION_CONTEXT(2) 
PARAMETRIC_REPRESENTATION_CONTEXT() REPRESENTATION_CONTEXT('2D SPACE',''
  ) );
#1346 = PCURVE('',#364,#1347);
#1347 = DEFINITIONAL_REPRESENTATION('',(#1348),#1352);
#1348 = LINE('',#1349,#1350);
#1349 = CARTESIAN_POINT('',(0.,0.));
#1350 = VECTOR('',#1351,1.);
#1351 = DIRECTION('',(0.,1.));
#1352 = ( GEOMETRIC_REPRESENTATION_CONTEXT(2) 
PARAMETRIC_REPRESENTATION_CONTEXT() REPRESENTATION_CONTEXT('2D SPACE',''
  ) );
#1353 = ADVANCED_FACE('',(#1354),#364,.T.);
#1354 = FACE_BOUND('',#1355,.T.);
#1355 = EDGE_LOOP('',(#1356,#1357,#1358,#1383));
#1356 = ORIENTED_EDGE('',*,*,#1333,.F.);
#1357 = ORIENTED_EDGE('',*,*,#1307,.T.);
#1358 = ORIENTED_EDGE('',*,*,#1359,.T.);
#1359 = EDGE_CURVE('',#1262,#265,#1360,.T.);
#1360 = SURFACE_CURVE('',#1361,(#1366,#1377),.PCURVE_S1.);
#1361 = CIRCLE('',#1362,50.);
#1362 = AXIS2_PLACEMENT_3D('',#1363,#1364,#1365);
#1363 = CARTESIAN_POINT('',(0.,50.,150.));
#1364 = DIRECTION('',(0.,-1.,0.));
#1365 = DIRECTION('',(1.,0.,0.));
#1366 = PCURVE('',#364,#1367);
#1367 = DEFINITIONAL_REPRESENTATION('',(#1368),#1376);
#1368 = ( BOUNDED_CURVE() B_SPLINE_CURVE(2,(#1369,#1370,#1371,#1372,
#1373,#1374,#1375),.UNSPECIFIED.,.T.,.F.) B_SPLINE_CURVE_WITH_KNOTS((1,2
    ,2,2,2,1),(-2.094395102393,0.,2.094395102393,4.188790204786,
6.28318530718,8.377580409573),.UNSPECIFIED.) CURVE() 
GEOMETRIC_REPRESENTATION_ITEM() RATIONAL_B_SPLINE_CURVE((1.,0.5,1.,0.5,
1.,0.5,1.)) REPRESENTATION_ITEM('') );
#1369 = CARTESIAN_POINT('',(50.,100.));
#1370 = CARTESIAN_POINT('',(136.60254037844,100.));
#1371 = CARTESIAN_POINT('',(93.301270189222,25.));
#1372 = CARTESIAN_POINT('',(50.,-50.));
#1373 = CARTESIAN_POINT('',(6.698729810778,25.));
#1374 = CARTESIAN_POINT('',(-36.60254037844,100.));
#1375 = CARTESIAN_POINT('',(50.,100.));
#1376 = ( GEOMETRIC_REPRESENTATION_CONTEXT(2) 
PARAMETRIC_REPRESENTATION_CONTEXT() REPRESENTATION_CONTEXT('2D SPACE',''
  ) );
#1377 = PCURVE('',#328,#1378);
#1378 = DEFINITIONAL_REPRESENTATION('',(#1379),#1382);
#1379 = B_SPLINE_CURVE_WITH_KNOTS('',1,(#1380,#1381),.UNSPECIFIED.,.F.,
  .F.,(2,2),(3.14159265359,3.987135758185),.PIECEWISE_BEZIER_KNOTS.);
#1380 = CARTESIAN_POINT('',(3.14159265359,-50.));
#1381 = CARTESIAN_POINT('',(3.987135758185,-50.));
#1382 = ( GEOMETRIC_REPRESENTATION_CONTEXT(2) 
PARAMETRIC_REPRESENTATION_CONTEXT() REPRESENTATION_CONTEXT('2D SPACE',''
  ) );
#1383 = ORIENTED_EDGE('',*,*,#349,.T.);
#1384 = ADVANCED_FACE('',(#1385),#328,.T.);
#1385 = FACE_BOUND('',#1386,.T.);
#1386 = EDGE_LOOP('',(#1387,#1388,#1389,#1411,#1432,#1458,#1459,#1460,
    #1461));
#1387 = ORIENTED_EDGE('',*,*,#1131,.F.);
#1388 = ORIENTED_EDGE('',*,*,#821,.T.);
#1389 = ORIENTED_EDGE('',*,*,#1390,.T.);
#1390 = EDGE_CURVE('',#76,#1391,#1393,.T.);
#1391 = VERTEX_POINT('',#1392);
#1392 = CARTESIAN_POINT('',(50.,50.,150.));
#1393 = SURFACE_CURVE('',#1394,(#1398,#1404),.PCURVE_S1.);
#1394 = LINE('',#1395,#1396);
#1395 = CARTESIAN_POINT('',(50.,-50.,150.));
#1396 = VECTOR('',#1397,1.);
#1397 = DIRECTION('',(0.,1.,0.));
#1398 = PCURVE('',#328,#1399);
#1399 = DEFINITIONAL_REPRESENTATION('',(#1400),#1403);
#1400 = B_SPLINE_CURVE_WITH_KNOTS('',1,(#1401,#1402),.UNSPECIFIED.,.F.,
  .F.,(2,2),(83.166247903552,100.),.PIECEWISE_BEZIER_KNOTS.);
#1401 = CARTESIAN_POINT('',(0.,-33.16624790355));
#1402 = CARTESIAN_POINT('',(0.,-50.));
#1403 = ( GEOMETRIC_REPRESENTATION_CONTEXT(2) 
PARAMETRIC_REPRESENTATION_CONTEXT() REPRESENTATION_CONTEXT('2D SPACE',''
  ) );
#1404 = PCURVE('',#118,#1405);
#1405 = DEFINITIONAL_REPRESENTATION('',(#1406),#1410);
#1406 = LINE('',#1407,#1408);
#1407 = CARTESIAN_POINT('',(50.,0.));
#1408 = VECTOR('',#1409,1.);
#1409 = DIRECTION('',(0.,-1.));
#1410 = ( GEOMETRIC_REPRESENTATION_CONTEXT(2) 
PARAMETRIC_REPRESENTATION_CONTEXT() REPRESENTATION_CONTEXT('2D SPACE',''
  ) );
#1411 = ORIENTED_EDGE('',*,*,#1412,.T.);
#1412 = EDGE_CURVE('',#1391,#1413,#1415,.T.);
#1413 = VERTEX_POINT('',#1414);
#1414 = CARTESIAN_POINT('',(50.,60.,150.));
#1415 = SURFACE_CURVE('',#1416,(#1420,#1426),.PCURVE_S1.);
#1416 = LINE('',#1417,#1418);
#1417 = CARTESIAN_POINT('',(50.,0.,150.));
#1418 = VECTOR('',#1419,1.);
#1419 = DIRECTION('',(-0.,1.,-0.));
#1420 = PCURVE('',#328,#1421);
#1421 = DEFINITIONAL_REPRESENTATION('',(#1422),#1425);
#1422 = B_SPLINE_CURVE_WITH_KNOTS('',1,(#1423,#1424),.UNSPECIFIED.,.F.,
  .F.,(2,2),(50.,60.),.PIECEWISE_BEZIER_KNOTS.);
#1423 = CARTESIAN_POINT('',(0.,-50.));
#1424 = CARTESIAN_POINT('',(0.,-60.));
#1425 = ( GEOMETRIC_REPRESENTATION_CONTEXT(2) 
PARAMETRIC_REPRESENTATION_CONTEXT() REPRESENTATION_CONTEXT('2D SPACE',''
  ) );
#1426 = PCURVE('',#248,#1427);
#1427 = DEFINITIONAL_REPRESENTATION('',(#1428),#1431);
#1428 = B_SPLINE_CURVE_WITH_KNOTS('',1,(#1429,#1430),.UNSPECIFIED.,.F.,
  .F.,(2,2),(50.,60.),.PIECEWISE_BEZIER_KNOTS.);
#1429 = CARTESIAN_POINT('',(6.28318530718,-50.));
#1430 = CARTESIAN_POINT('',(6.28318530718,-60.));
#1431 = ( GEOMETRIC_REPRESENTATION_CONTEXT(2) 
PARAMETRIC_REPRESENTATION_CONTEXT() REPRESENTATION_CONTEXT('2D SPACE',''
  ) );
#1432 = ORIENTED_EDGE('',*,*,#1433,.T.);
#1433 = EDGE_CURVE('',#1413,#190,#1434,.T.);
#1434 = SURFACE_CURVE('',#1435,(#1440,#1446),.PCURVE_S1.);
#1435 = CIRCLE('',#1436,50.);
#1436 = AXIS2_PLACEMENT_3D('',#1437,#1438,#1439);
#1437 = CARTESIAN_POINT('',(0.,60.,150.));
#1438 = DIRECTION('',(0.,-1.,0.));
#1439 = DIRECTION('',(1.,0.,0.));
#1440 = PCURVE('',#328,#1441);
#1441 = DEFINITIONAL_REPRESENTATION('',(#1442),#1445);
#1442 = B_SPLINE_CURVE_WITH_KNOTS('',1,(#1443,#1444),.UNSPECIFIED.,.F.,
  .F.,(2,2),(0.,4.712388980385),.PIECEWISE_BEZIER_KNOTS.);
#1443 = CARTESIAN_POINT('',(0.,-60.));
#1444 = CARTESIAN_POINT('',(4.712388980385,-60.));
#1445 = ( GEOMETRIC_REPRESENTATION_CONTEXT(2) 
PARAMETRIC_REPRESENTATION_CONTEXT() REPRESENTATION_CONTEXT('2D SPACE',''
  ) );
#1446 = PCURVE('',#1447,#1452);
#1447 = PLANE('',#1448);
#1448 = AXIS2_PLACEMENT_3D('',#1449,#1450,#1451);
#1449 = CARTESIAN_POINT('',(-1.669238443041E-15,60.,150.));
#1450 = DIRECTION('',(-0.,-1.,-0.));
#1451 = DIRECTION('',(0.,0.,-1.));
#1452 = DEFINITIONAL_REPRESENTATION('',(#1453),#1457);
#1453 = CIRCLE('',#1454,50.);
#1454 = AXIS2_PLACEMENT_2D('',#1455,#1456);
#1455 = CARTESIAN_POINT('',(0.,1.669238443041E-15));
#1456 = DIRECTION('',(0.,1.));
#1457 = ( GEOMETRIC_REPRESENTATION_CONTEXT(2) 
PARAMETRIC_REPRESENTATION_CONTEXT() REPRESENTATION_CONTEXT('2D SPACE',''
  ) );
#1458 = ORIENTED_EDGE('',*,*,#264,.F.);
#1459 = ORIENTED_EDGE('',*,*,#1359,.F.);
#1460 = ORIENTED_EDGE('',*,*,#1261,.F.);
#1461 = ORIENTED_EDGE('',*,*,#1237,.F.);
#1462 = ADVANCED_FACE('',(#1463),#248,.T.);
#1463 = FACE_BOUND('',#1464,.T.);
#1464 = EDGE_LOOP('',(#1465,#1466,#1491,#1492));
#1465 = ORIENTED_EDGE('',*,*,#1412,.F.);
#1466 = ORIENTED_EDGE('',*,*,#1467,.F.);
#1467 = EDGE_CURVE('',#163,#1391,#1468,.T.);
#1468 = SURFACE_CURVE('',#1469,(#1474,#1480),.PCURVE_S1.);
#1469 = CIRCLE('',#1470,50.);
#1470 = AXIS2_PLACEMENT_3D('',#1471,#1472,#1473);
#1471 = CARTESIAN_POINT('',(0.,50.,150.));
#1472 = DIRECTION('',(0.,-1.,0.));
#1473 = DIRECTION('',(1.,0.,0.));
#1474 = PCURVE('',#248,#1475);
#1475 = DEFINITIONAL_REPRESENTATION('',(#1476),#1479);
#1476 = B_SPLINE_CURVE_WITH_KNOTS('',1,(#1477,#1478),.UNSPECIFIED.,.F.,
  .F.,(2,2),(5.437642202585,6.28318530718),.PIECEWISE_BEZIER_KNOTS.);
#1477 = CARTESIAN_POINT('',(5.437642202585,-50.));
#1478 = CARTESIAN_POINT('',(6.28318530718,-50.));
#1479 = ( GEOMETRIC_REPRESENTATION_CONTEXT(2) 
PARAMETRIC_REPRESENTATION_CONTEXT() REPRESENTATION_CONTEXT('2D SPACE',''
  ) );
#1480 = PCURVE('',#177,#1481);
#1481 = DEFINITIONAL_REPRESENTATION('',(#1482),#1490);
#1482 = ( BOUNDED_CURVE() B_SPLINE_CURVE(2,(#1483,#1484,#1485,#1486,
#1487,#1488,#1489),.UNSPECIFIED.,.T.,.F.) B_SPLINE_CURVE_WITH_KNOTS((1,2
    ,2,2,2,1),(-2.094395102393,0.,2.094395102393,4.188790204786,
6.28318530718,8.377580409573),.UNSPECIFIED.) CURVE() 
GEOMETRIC_REPRESENTATION_ITEM() RATIONAL_B_SPLINE_CURVE((1.,0.5,1.,0.5,
1.,0.5,1.)) REPRESENTATION_ITEM('') );
#1483 = CARTESIAN_POINT('',(50.,100.));
#1484 = CARTESIAN_POINT('',(136.60254037844,100.));
#1485 = CARTESIAN_POINT('',(93.301270189222,25.));
#1486 = CARTESIAN_POINT('',(50.,-50.));
#1487 = CARTESIAN_POINT('',(6.698729810778,25.));
#1488 = CARTESIAN_POINT('',(-36.60254037844,100.));
#1489 = CARTESIAN_POINT('',(50.,100.));
#1490 = ( GEOMETRIC_REPRESENTATION_CONTEXT(2) 
PARAMETRIC_REPRESENTATION_CONTEXT() REPRESENTATION_CONTEXT('2D SPACE',''
  ) );
#1491 = ORIENTED_EDGE('',*,*,#189,.F.);
#1492 = ORIENTED_EDGE('',*,*,#1493,.T.);
#1493 = EDGE_CURVE('',#190,#1413,#1494,.T.);
#1494 = SURFACE_CURVE('',#1495,(#1500,#1506),.PCURVE_S1.);
#1495 = CIRCLE('',#1496,50.);
#1496 = AXIS2_PLACEMENT_3D('',#1497,#1498,#1499);
#1497 = CARTESIAN_POINT('',(0.,60.,150.));
#1498 = DIRECTION('',(0.,-1.,0.));
#1499 = DIRECTION('',(1.,0.,0.));
#1500 = PCURVE('',#248,#1501);
#1501 = DEFINITIONAL_REPRESENTATION('',(#1502),#1505);
#1502 = B_SPLINE_CURVE_WITH_KNOTS('',1,(#1503,#1504),.UNSPECIFIED.,.F.,
  .F.,(2,2),(4.712388980385,6.28318530718),.PIECEWISE_BEZIER_KNOTS.);
#1503 = CARTESIAN_POINT('',(4.712388980385,-60.));
#1504 = CARTESIAN_POINT('',(6.28318530718,-60.));
#1505 = ( GEOMETRIC_REPRESENTATION_CONTEXT(2) 
PARAMETRIC_REPRESENTATION_CONTEXT() REPRESENTATION_CONTEXT('2D SPACE',''
  ) );
#1506 = PCURVE('',#1447,#1507);
#1507 = DEFINITIONAL_REPRESENTATION('',(#1508),#1512);
#1508 = CIRCLE('',#1509,50.);
#1509 = AXIS2_PLACEMENT_2D('',#1510,#1511);
#1510 = CARTESIAN_POINT('',(0.,1.669238443041E-15));
#1511 = DIRECTION('',(0.,1.));
#1512 = ( GEOMETRIC_REPRESENTATION_CONTEXT(2) 
PARAMETRIC_REPRESENTATION_CONTEXT() REPRESENTATION_CONTEXT('2D SPACE',''
  ) );
#1513 = ADVANCED_FACE('',(#1514),#177,.T.);
#1514 = FACE_BOUND('',#1515,.T.);
#1515 = EDGE_LOOP('',(#1516,#1539,#1540,#1541));
#1516 = ORIENTED_EDGE('',*,*,#1517,.F.);
#1517 = EDGE_CURVE('',#131,#1518,#1520,.T.);
#1518 = VERTEX_POINT('',#1519);
#1519 = CARTESIAN_POINT('',(50.,50.,100.));
#1520 = SURFACE_CURVE('',#1521,(#1525,#1532),.PCURVE_S1.);
#1521 = LINE('',#1522,#1523);
#1522 = CARTESIAN_POINT('',(-50.,50.,100.));
#1523 = VECTOR('',#1524,1.);
#1524 = DIRECTION('',(1.,0.,0.));
#1525 = PCURVE('',#177,#1526);
#1526 = DEFINITIONAL_REPRESENTATION('',(#1527),#1531);
#1527 = LINE('',#1528,#1529);
#1528 = CARTESIAN_POINT('',(0.,0.));
#1529 = VECTOR('',#1530,1.);
#1530 = DIRECTION('',(0.,1.));
#1531 = ( GEOMETRIC_REPRESENTATION_CONTEXT(2) 
PARAMETRIC_REPRESENTATION_CONTEXT() REPRESENTATION_CONTEXT('2D SPACE',''
  ) );
#1532 = PCURVE('',#146,#1533);
#1533 = DEFINITIONAL_REPRESENTATION('',(#1534),#1538);
#1534 = LINE('',#1535,#1536);
#1535 = CARTESIAN_POINT('',(0.,100.));
#1536 = VECTOR('',#1537,1.);
#1537 = DIRECTION('',(1.,0.));
#1538 = ( GEOMETRIC_REPRESENTATION_CONTEXT(2) 
PARAMETRIC_REPRESENTATION_CONTEXT() REPRESENTATION_CONTEXT('2D SPACE',''
  ) );
#1539 = ORIENTED_EDGE('',*,*,#162,.F.);
#1540 = ORIENTED_EDGE('',*,*,#1467,.T.);
#1541 = ORIENTED_EDGE('',*,*,#1542,.F.);
#1542 = EDGE_CURVE('',#1518,#1391,#1543,.T.);
#1543 = SURFACE_CURVE('',#1544,(#1548,#1555),.PCURVE_S1.);
#1544 = LINE('',#1545,#1546);
#1545 = CARTESIAN_POINT('',(50.,50.,100.));
#1546 = VECTOR('',#1547,1.);
#1547 = DIRECTION('',(0.,0.,1.));
#1548 = PCURVE('',#177,#1549);
#1549 = DEFINITIONAL_REPRESENTATION('',(#1550),#1554);
#1550 = LINE('',#1551,#1552);
#1551 = CARTESIAN_POINT('',(0.,100.));
#1552 = VECTOR('',#1553,1.);
#1553 = DIRECTION('',(1.,0.));
#1554 = ( GEOMETRIC_REPRESENTATION_CONTEXT(2) 
PARAMETRIC_REPRESENTATION_CONTEXT() REPRESENTATION_CONTEXT('2D SPACE',''
  ) );
#1555 = PCURVE('',#118,#1556);
#1556 = DEFINITIONAL_REPRESENTATION('',(#1557),#1561);
#1557 = LINE('',#1558,#1559);
#1558 = CARTESIAN_POINT('',(0.,-100.));
#1559 = VECTOR('',#1560,1.);
#1560 = DIRECTION('',(1.,0.));
#1561 = ( GEOMETRIC_REPRESENTATION_CONTEXT(2) 
PARAMETRIC_REPRESENTATION_CONTEXT() REPRESENTATION_CONTEXT('2D SPACE',''
  ) );
#1562 = ADVANCED_FACE('',(#1563),#146,.F.);
#1563 = FACE_BOUND('',#1564,.F.);
#1564 = EDGE_LOOP('',(#1565,#1566,#1567));
#1565 = ORIENTED_EDGE('',*,*,#1517,.F.);
#1566 = ORIENTED_EDGE('',*,*,#130,.T.);
#1567 = ORIENTED_EDGE('',*,*,#1568,.T.);
#1568 = EDGE_CURVE('',#104,#1518,#1569,.T.);
#1569 = SURFACE_CURVE('',#1570,(#1574,#1581),.PCURVE_S1.);
#1570 = LINE('',#1571,#1572);
#1571 = CARTESIAN_POINT('',(50.,-50.,100.));
#1572 = VECTOR('',#1573,1.);
#1573 = DIRECTION('',(0.,1.,0.));
#1574 = PCURVE('',#146,#1575);
#1575 = DEFINITIONAL_REPRESENTATION('',(#1576),#1580);
#1576 = LINE('',#1577,#1578);
#1577 = CARTESIAN_POINT('',(100.,0.));
#1578 = VECTOR('',#1579,1.);
#1579 = DIRECTION('',(0.,1.));
#1580 = ( GEOMETRIC_REPRESENTATION_CONTEXT(2) 
PARAMETRIC_REPRESENTATION_CONTEXT() REPRESENTATION_CONTEXT('2D SPACE',''
  ) );
#1581 = PCURVE('',#118,#1582);
#1582 = DEFINITIONAL_REPRESENTATION('',(#1583),#1587);
#1583 = LINE('',#1584,#1585);
#1584 = CARTESIAN_POINT('',(0.,0.));
#1585 = VECTOR('',#1586,1.);
#1586 = DIRECTION('',(0.,-1.));
#1587 = ( GEOMETRIC_REPRESENTATION_CONTEXT(2) 
PARAMETRIC_REPRESENTATION_CONTEXT() REPRESENTATION_CONTEXT('2D SPACE',''
  ) );
#1588 = ADVANCED_FACE('',(#1589),#118,.T.);
#1589 = FACE_BOUND('',#1590,.T.);
#1590 = EDGE_LOOP('',(#1591,#1592,#1593,#1594));
#1591 = ORIENTED_EDGE('',*,*,#1390,.F.);
#1592 = ORIENTED_EDGE('',*,*,#103,.T.);
#1593 = ORIENTED_EDGE('',*,*,#1568,.T.);
#1594 = ORIENTED_EDGE('',*,*,#1542,.T.);
#1595 = ADVANCED_FACE('',(#1596),#63,.T.);
#1596 = FACE_BOUND('',#1597,.T.);
#1597 = EDGE_LOOP('',(#1598,#1619,#1645,#1646));
#1598 = ORIENTED_EDGE('',*,*,#1599,.T.);
#1599 = EDGE_CURVE('',#22,#1600,#1602,.T.);
#1600 = VERTEX_POINT('',#1601);
#1601 = CARTESIAN_POINT('',(60.,0.,40.));
#1602 = SEAM_CURVE('',#1603,(#1607,#1613),.PCURVE_S1.);
#1603 = LINE('',#1604,#1605);
#1604 = CARTESIAN_POINT('',(60.,0.,95.));
#1605 = VECTOR('',#1606,1.);
#1606 = DIRECTION('',(-0.,-0.,-1.));
#1607 = PCURVE('',#63,#1608);
#1608 = DEFINITIONAL_REPRESENTATION('',(#1609),#1612);
#1609 = B_SPLINE_CURVE_WITH_KNOTS('',1,(#1610,#1611),.UNSPECIFIED.,.F.,
  .F.,(2,2),(0.,55.),.PIECEWISE_BEZIER_KNOTS.);
#1610 = CARTESIAN_POINT('',(0.,0.));
#1611 = CARTESIAN_POINT('',(0.,-55.));
#1612 = ( GEOMETRIC_REPRESENTATION_CONTEXT(2) 
PARAMETRIC_REPRESENTATION_CONTEXT() REPRESENTATION_CONTEXT('2D SPACE',''
  ) );
#1613 = PCURVE('',#63,#1614);
#1614 = DEFINITIONAL_REPRESENTATION('',(#1615),#1618);
#1615 = B_SPLINE_CURVE_WITH_KNOTS('',1,(#1616,#1617),.UNSPECIFIED.,.F.,
  .F.,(2,2),(0.,55.),.PIECEWISE_BEZIER_KNOTS.);
#1616 = CARTESIAN_POINT('',(6.28318530718,0.));
#1617 = CARTESIAN_POINT('',(6.28318530718,-55.));
#1618 = ( GEOMETRIC_REPRESENTATION_CONTEXT(2) 
PARAMETRIC_REPRESENTATION_CONTEXT() REPRESENTATION_CONTEXT('2D SPACE',''
  ) );
#1619 = ORIENTED_EDGE('',*,*,#1620,.T.);
#1620 = EDGE_CURVE('',#1600,#1600,#1621,.T.);
#1621 = SURFACE_CURVE('',#1622,(#1627,#1633),.PCURVE_S1.);
#1622 = CIRCLE('',#1623,60.);
#1623 = AXIS2_PLACEMENT_3D('',#1624,#1625,#1626);
#1624 = CARTESIAN_POINT('',(0.,0.,40.));
#1625 = DIRECTION('',(0.,0.,1.));
#1626 = DIRECTION('',(1.,0.,0.));
#1627 = PCURVE('',#63,#1628);
#1628 = DEFINITIONAL_REPRESENTATION('',(#1629),#1632);
#1629 = B_SPLINE_CURVE_WITH_KNOTS('',1,(#1630,#1631),.UNSPECIFIED.,.F.,
  .F.,(2,2),(0.,6.28318530718),.PIECEWISE_BEZIER_KNOTS.);
#1630 = CARTESIAN_POINT('',(0.,-55.));
#1631 = CARTESIAN_POINT('',(6.28318530718,-55.));
#1632 = ( GEOMETRIC_REPRESENTATION_CONTEXT(2) 
PARAMETRIC_REPRESENTATION_CONTEXT() REPRESENTATION_CONTEXT('2D SPACE',''
  ) );
#1633 = PCURVE('',#1634,#1639);
#1634 = PLANE('',#1635);
#1635 = AXIS2_PLACEMENT_3D('',#1636,#1637,#1638);
#1636 = CARTESIAN_POINT('',(0.,3.114834545176E-15,40.));
#1637 = DIRECTION('',(0.,0.,1.));
#1638 = DIRECTION('',(1.,0.,-0.));
#1639 = DEFINITIONAL_REPRESENTATION('',(#1640),#1644);
#1640 = CIRCLE('',#1641,60.);
#1641 = AXIS2_PLACEMENT_2D('',#1642,#1643);
#1642 = CARTESIAN_POINT('',(0.,-3.114834545176E-15));
#1643 = DIRECTION('',(1.,0.));
#1644 = ( GEOMETRIC_REPRESENTATION_CONTEXT(2) 
PARAMETRIC_REPRESENTATION_CONTEXT() REPRESENTATION_CONTEXT('2D SPACE',''
  ) );
#1645 = ORIENTED_EDGE('',*,*,#1599,.F.);
#1646 = ORIENTED_EDGE('',*,*,#49,.F.);
#1647 = ADVANCED_FACE('',(#1648),#1026,.T.);
#1648 = FACE_BOUND('',#1649,.T.);
#1649 = EDGE_LOOP('',(#1650,#1651));
#1650 = ORIENTED_EDGE('',*,*,#1044,.T.);
#1651 = ORIENTED_EDGE('',*,*,#1012,.T.);
#1652 = ADVANCED_FACE('',(#1653),#1447,.F.);
#1653 = FACE_BOUND('',#1654,.F.);
#1654 = EDGE_LOOP('',(#1655,#1656));
#1655 = ORIENTED_EDGE('',*,*,#1433,.T.);
#1656 = ORIENTED_EDGE('',*,*,#1493,.T.);
#1657 = ADVANCED_FACE('',(#1658),#1634,.F.);
#1658 = FACE_BOUND('',#1659,.F.);
#1659 = EDGE_LOOP('',(#1660));
#1660 = ORIENTED_EDGE('',*,*,#1620,.T.);
#1661 = ( GEOMETRIC_REPRESENTATION_CONTEXT(3) 
GLOBAL_UNCERTAINTY_ASSIGNED_CONTEXT((#1665)) 
GLOBAL_UNIT_ASSIGNED_CONTEXT((#1662,#1663,#1664)) REPRESENTATION_CONTEXT
('Context #1','3D Context with UNIT and UNCERTAINTY') );
#1662 = ( LENGTH_UNIT() NAMED_UNIT(*) SI_UNIT(.MILLI.,.METRE.) );
#1663 = ( NAMED_UNIT(*) PLANE_ANGLE_UNIT() SI_UNIT($,.RADIAN.) );
#1664 = ( NAMED_UNIT(*) SI_UNIT($,.STERADIAN.) SOLID_ANGLE_UNIT() );
#1665 = UNCERTAINTY_MEASURE_WITH_UNIT(LENGTH_MEASURE(1.E-04),#1662,
  'distance_accuracy_value','confusion accuracy');
#1666 = PRODUCT_RELATED_PRODUCT_CATEGORY('part',$,(#7));
ENDSEC;
END-ISO-10303-21;
